<svg width="30" height="30" viewBox="0 0 30 30" fill="none" xmlns="http://www.w3.org/2000/svg">
<path d="M14.75 10.0078C12.25 10.0078 10.2578 12.0391 10.2578 14.5C10.2578 17 12.25 18.9922 14.75 18.9922C17.2109 18.9922 19.2422 17 19.2422 14.5C19.2422 12.0391 17.2109 10.0078 14.75 10.0078ZM14.75 17.4297C13.1484 17.4297 11.8203 16.1406 11.8203 14.5C11.8203 12.8984 13.1094 11.6094 14.75 11.6094C16.3516 11.6094 17.6406 12.8984 17.6406 14.5C17.6406 16.1406 16.3516 17.4297 14.75 17.4297ZM20.4531 9.85156C20.4531 9.26562 19.9844 8.79688 19.3984 8.79688C18.8125 8.79688 18.3438 9.26562 18.3438 9.85156C18.3438 10.4375 18.8125 10.9062 19.3984 10.9062C19.9844 10.9062 20.4531 10.4375 20.4531 9.85156ZM23.4219 10.9062C23.3438 9.5 23.0312 8.25 22.0156 7.23438C21 6.21875 19.75 5.90625 18.3438 5.82812C16.8984 5.75 12.5625 5.75 11.1172 5.82812C9.71094 5.90625 8.5 6.21875 7.44531 7.23438C6.42969 8.25 6.11719 9.5 6.03906 10.9062C5.96094 12.3516 5.96094 16.6875 6.03906 18.1328C6.11719 19.5391 6.42969 20.75 7.44531 21.8047C8.5 22.8203 9.71094 23.1328 11.1172 23.2109C12.5625 23.2891 16.8984 23.2891 18.3438 23.2109C19.75 23.1328 21 22.8203 22.0156 21.8047C23.0312 20.75 23.3438 19.5391 23.4219 18.1328C23.5 16.6875 23.5 12.3516 23.4219 10.9062ZM21.5469 19.6562C21.2734 20.4375 20.6484 21.0234 19.9062 21.3359C18.7344 21.8047 16 21.6875 14.75 21.6875C13.4609 21.6875 10.7266 21.8047 9.59375 21.3359C8.8125 21.0234 8.22656 20.4375 7.91406 19.6562C7.44531 18.5234 7.5625 15.7891 7.5625 14.5C7.5625 13.25 7.44531 10.5156 7.91406 9.34375C8.22656 8.60156 8.8125 8.01562 9.59375 7.70312C10.7266 7.23438 13.4609 7.35156 14.75 7.35156C16 7.35156 18.7344 7.23438 19.9062 7.70312C20.6484 7.97656 21.2344 8.60156 21.5469 9.34375C22.0156 10.5156 21.8984 13.25 21.8984 14.5C21.8984 15.7891 22.0156 18.5234 21.5469 19.6562Z" fill="white"/>
</svg>
