<svg width="30" height="30" viewBox="0 0 30 30" fill="none" xmlns="http://www.w3.org/2000/svg">
<path d="M18.7425 17.5469C19.9925 16.7266 20.5784 16.2578 20.0706 15.2422C19.7972 14.6953 18.9769 14.2266 17.9612 15.0469C17.9612 15.0469 16.5159 16.1797 14.2503 16.1797C11.9456 16.1797 10.5394 15.0469 10.5394 15.0469C9.48468 14.1875 8.70343 14.6953 8.39093 15.2422C7.92218 16.2578 8.46905 16.7266 9.71905 17.5469C10.8128 18.25 12.2972 18.5234 13.2737 18.6016L12.4534 19.4219C11.3206 20.5547 10.2659 21.6484 9.48468 22.3906C8.39093 23.4844 10.1487 25.2422 11.2816 24.1875L14.2503 21.1797C15.3831 22.3516 16.4769 23.4453 17.2191 24.1875C18.3128 25.2812 20.1097 23.5234 19.0159 22.3906L16.0472 19.4219L15.2269 18.6016C16.2034 18.5234 17.6487 18.25 18.7425 17.5469ZM9.17218 9.57812C9.17218 12.3906 11.4378 14.6562 14.2503 14.6562C17.0237 14.6562 19.2894 12.3906 19.2894 9.57812C19.2894 6.76562 17.0237 4.5 14.2503 4.5C11.4378 4.5 9.17218 6.76562 9.17218 9.57812ZM11.7503 9.57812C11.7503 8.21094 12.8441 7.07812 14.2503 7.07812C15.6175 7.07812 16.7112 8.21094 16.7112 9.57812C16.7112 10.9453 15.6175 12.0781 14.2503 12.0781C12.8441 12.0781 11.7503 10.9453 11.7503 9.57812Z" fill="white"/>
</svg>
