<svg width="30" height="30" viewBox="0 0 30 30" fill="none" xmlns="http://www.w3.org/2000/svg">
<path d="M24.2891 9.10938C24.4062 8.64062 24.2891 8.25 23.5859 8.25H21.2812C20.6953 8.25 20.4219 8.5625 20.2656 8.91406C20.2656 8.91406 19.0938 11.7656 17.4531 13.6406C16.9062 14.1484 16.6719 14.3438 16.3594 14.3438C16.2422 14.3438 16.0078 14.1484 16.0078 13.6797V9.10938C16.0078 8.52344 15.8516 8.25 15.3438 8.25H11.75C11.3594 8.25 11.1641 8.52344 11.1641 8.79688C11.1641 9.34375 11.9844 9.46094 12.0625 11.0234V14.4219C12.0625 15.1641 11.9453 15.3203 11.6328 15.3203C10.8516 15.3203 8.97656 12.4297 7.84375 9.14844C7.60938 8.52344 7.375 8.25 6.78906 8.25H4.48438C3.85938 8.25 3.70312 8.5625 3.70312 8.91406C3.70312 9.53906 4.48438 12.5469 7.33594 16.5703C9.25 19.3047 11.9453 20.75 14.3672 20.75C15.8125 20.75 16.0078 20.4375 16.0078 19.8906C16.0078 17.2734 15.8906 17 16.5938 17C16.9453 17 17.5312 17.1953 18.8984 18.5234C20.4609 20.0859 20.7344 20.75 21.5938 20.75H23.8984C24.5625 20.75 24.875 20.4375 24.6797 19.7734C24.25 18.4453 21.3203 15.6328 21.1641 15.4375C20.8125 15.0078 20.9297 14.8125 21.1641 14.4219C21.1641 14.4219 23.9766 10.4375 24.2891 9.10938Z" fill="white"/>
</svg>
