<svg width="95" height="91" viewBox="0 0 95 91" fill="none" xmlns="http://www.w3.org/2000/svg">
<path d="M46.1289 38.9033V47.1291H89.9999V38.9033H46.1289ZM87.2579 44.3872H48.8708V41.6453H87.2579V44.3872Z" fill="#364E65"/>
<path d="M48.8711 36.161H51.613V34.0936L68.0646 21.4396L84.5162 34.0936V36.161H87.2582V32.7446L68.0646 17.9792L48.8711 32.7446V36.161Z" fill="#364E65"/>
<path d="M90 75.9193C90 72.0723 88.677 68.3008 86.2737 65.297L85.0727 63.7958C84.268 62.7881 83.0656 62.2096 81.7742 62.2096C80.7501 62.2096 79.7904 62.5866 79.0323 63.2392V60.8386H70.8064V69.0644H75.0002C74.0543 71.2141 73.5484 73.5516 73.5484 75.9193C73.5484 79.9869 76.5193 83.365 80.4032 84.0217V88.258H73.5484V75.9193V74.5483H62.5806V88.258H48.871V84.0217C52.7549 83.3664 55.7258 79.9883 55.7258 75.9193C55.7258 72.0723 54.4028 68.3008 51.9995 65.297L50.7985 63.7958C49.9938 62.7881 48.7914 62.2096 47.5 62.2096C46.2085 62.2096 45.0062 62.7881 44.2028 63.7944L43.0005 65.297C40.5972 68.3008 39.2742 72.0723 39.2742 75.9193C39.2742 79.9869 42.2451 83.365 46.129 84.0217V88.258H33.7903V74.5483H22.8226V88.258H14.5968V84.0217C18.4807 83.3664 21.4516 79.9883 21.4516 75.9193C21.4516 72.4973 20.3987 69.1385 18.4766 66.3225H20.0806V58.0967H11.8548V62.4632C11.109 62.7196 10.4345 63.1597 9.92863 63.7944L8.72629 65.297C6.32298 68.3008 5 72.0723 5 75.9193C5 79.9869 7.97089 83.365 11.8548 84.0217V88.258H7.74194V84.1451H5V90.9999H11.8548H14.5968H46.129H48.871H80.4032H83.1452H90V84.1451H87.2581V88.258H83.1452V84.0217C87.0291 83.365 90 79.9869 90 75.9193ZM14.5968 60.8386H17.3387V63.5806H16.3091C15.832 63.0637 15.248 62.6881 14.5968 62.4632V60.8386ZM11.8548 74.5483V81.2085C9.49677 80.5956 7.74194 78.4679 7.74194 75.9193C7.74194 72.692 8.85242 69.5292 10.8664 67.0107L12.0687 65.5068C12.3525 65.1531 12.7734 64.9515 13.2258 64.9515C13.6782 64.9515 14.0991 65.1531 14.3829 65.5081L15.5852 67.0107C17.5992 69.5292 18.7097 72.692 18.7097 75.9193C18.7097 78.4679 16.9548 80.5956 14.5968 81.2085V74.5483H11.8548ZM31.0484 88.258H25.5645V77.2902H31.0484V88.258ZM46.129 74.5483V81.2085C43.771 80.5956 42.0161 78.4679 42.0161 75.9193C42.0161 72.692 43.1266 69.5292 45.1406 67.0107L46.3429 65.5068C46.6267 65.1531 47.0476 64.9515 47.5 64.9515C47.9524 64.9515 48.3733 65.1531 48.6571 65.5081L49.8594 67.0107C51.8734 69.5292 52.9839 72.692 52.9839 75.9193C52.9839 78.4679 51.229 80.5956 48.871 81.2085V74.5483H46.129ZM70.8064 88.258H65.3226V77.2902H70.8064V88.258ZM73.5484 66.3225V63.5806H76.2903V66.3225H73.5484ZM80.4032 74.5483V81.2085C78.0452 80.5956 76.2903 78.4679 76.2903 75.9193C76.2903 72.692 77.4008 69.5292 79.4148 67.0107L80.6171 65.5068C80.9009 65.1531 81.3218 64.9515 81.7742 64.9515C82.2266 64.9515 82.6475 65.1531 82.9313 65.5081L84.1336 67.0107C86.1476 69.5292 87.2581 72.692 87.2581 75.9193C87.2581 78.4679 85.5032 80.5956 83.1452 81.2085V74.5483H80.4032Z" fill="#364E65"/>
<path d="M51.613 49.8711H48.8711V60.8388H51.613V49.8711Z" fill="#364E65"/>
<path d="M87.258 49.8711H84.5161V60.8388H87.258V49.8711Z" fill="#364E65"/>
<path d="M79.0325 49.8711H70.8066V58.0969H79.0325V49.8711ZM76.2905 55.355H73.5486V52.613H76.2905V55.355Z" fill="#364E65"/>
<path d="M65.3225 49.8711H57.0967V58.0969H65.3225V49.8711ZM62.5805 55.355H59.8386V52.613H62.5805V55.355Z" fill="#364E65"/>
<path d="M31.0486 25.1936H22.8228V33.4194H31.0486V25.1936ZM28.3066 30.6775H25.5647V27.9355H28.3066V30.6775Z" fill="#364E65"/>
<path d="M42.0163 25.1936H33.7905V33.4194H42.0163V25.1936ZM39.2744 30.6775H36.5325V27.9355H39.2744V30.6775Z" fill="#364E65"/>
<path d="M20.0808 25.1936H11.855V33.4194H20.0808V25.1936ZM17.3389 30.6775H14.5969V27.9355H17.3389V30.6775Z" fill="#364E65"/>
<path d="M31.0486 36.1614H22.8228V44.3872H31.0486V36.1614ZM28.3066 41.6453H25.5647V38.9033H28.3066V41.6453Z" fill="#364E65"/>
<path d="M42.0163 36.1614H33.7905V44.3872H42.0163V36.1614ZM39.2744 41.6453H36.5325V38.9033H39.2744V41.6453Z" fill="#364E65"/>
<path d="M20.0808 36.1614H11.855V44.3872H20.0808V36.1614ZM17.3389 41.6453H14.5969V38.9033H17.3389V41.6453Z" fill="#364E65"/>
<path d="M31.0486 47.1292H22.8228V55.355H31.0486V47.1292ZM28.3066 52.613H25.5647V49.8711H28.3066V52.613Z" fill="#364E65"/>
<path d="M42.0163 47.1292H33.7905V55.355H42.0163V47.1292ZM39.2744 52.613H36.5325V49.8711H39.2744V52.613Z" fill="#364E65"/>
<path d="M11.855 55.355H20.0808V47.1292H11.855V55.355ZM14.5969 49.8711H17.3389V52.613H14.5969V49.8711Z" fill="#364E65"/>
<path d="M22.8228 66.3225H31.0486V58.0967H22.8228V66.3225ZM25.5647 60.8386H28.3066V63.5806H25.5647V60.8386Z" fill="#364E65"/>
<path d="M33.7905 66.3225H42.0163V58.0967H33.7905V66.3225ZM36.5325 60.8386H39.2744V63.5806H36.5325V60.8386Z" fill="#364E65"/>
<path d="M57.0967 69.0644H65.3225V60.8386H57.0967V69.0644ZM59.8386 63.5806H62.5805V66.3225H59.8386V63.5806Z" fill="#364E65"/>
<path d="M7.74194 22.4517H46.129V29.3065H48.871V19.7097H5V64.9517H7.74194V22.4517Z" fill="#364E65"/>
<path d="M11.8547 14.2258H42.016V16.9677H44.758V11.4839H42.016V6H11.8547V11.4839H9.11279V16.9677H11.8547V14.2258ZM14.5967 8.74194H39.2741V11.4839H14.5967V8.74194Z" fill="#364E65"/>
</svg>
