<svg width="80" height="80" viewBox="0 0 80 80" fill="none" xmlns="http://www.w3.org/2000/svg">
<path d="M49.6273 52.363V54.0801C49.6273 54.3759 49.8534 54.6143 50.1342 54.6143H52.9665C53.2457 54.6143 53.4734 54.3759 53.4734 54.0801V53.1929C57.0746 53.8278 60.0847 53.8278 63.686 53.1929V54.0801C63.686 54.3759 63.9121 54.6143 64.1929 54.6143H67.0252C67.3044 54.6143 67.5321 54.3759 67.5321 54.0801V52.363C67.7629 52.2763 67.9345 52.0595 67.9547 51.7901C68.0546 50.4461 67.9797 49.339 67.8003 47.9966C67.7473 47.6033 67.5601 47.2425 67.2794 46.9777L67.0907 46.7997C66.8037 46.5271 66.4668 46.3212 66.1019 46.1927L65.8617 46.1091L66.5604 45.77C66.7008 45.7019 66.7678 45.5315 66.7148 45.3798L66.4419 44.5963C66.3904 44.4492 66.2329 44.3749 66.0956 44.4337L64.8541 44.9633C64.8448 44.9679 64.837 44.9726 64.8276 44.9772C64.4829 44.4183 64.1024 43.9305 63.6782 43.4645C63.4193 43.1796 63.0543 43.0294 62.68 43.0294H54.4809C54.105 43.0294 53.7401 43.1811 53.4812 43.4675C53.0585 43.9336 52.678 44.4198 52.3333 44.9788C52.3239 44.9741 52.3161 44.9679 52.3068 44.9648L51.0653 44.4353C50.9265 44.3764 50.7689 44.4492 50.719 44.5979L50.4461 45.3813C50.3931 45.5331 50.4601 45.7034 50.6005 45.7715L51.2992 46.1106L51.059 46.1942C50.6941 46.3228 50.3556 46.5302 50.0702 46.8012L49.8815 46.9793C49.6008 47.244 49.4136 47.6048 49.3606 47.9981C49.1812 49.3406 49.1048 50.4476 49.2062 51.7916C49.2233 52.0595 49.3964 52.2778 49.6273 52.363ZM61.3247 48.8853L61.0845 50.2959C60.4216 51.1785 56.7346 51.1785 56.0718 50.2959L55.8316 48.8853C55.777 48.5695 56.0078 48.2784 56.3119 48.2784H60.8443C61.1484 48.2799 61.3792 48.5695 61.3247 48.8853ZM66.1689 47.5073C66.2859 47.4717 66.3966 47.5816 66.3686 47.707L66.328 47.8866C66.1237 48.7909 65.4343 49.483 64.5672 49.6518L63.4863 49.8624C63.3865 49.8825 63.2883 49.8205 63.2571 49.7184L62.9514 48.7135C62.9358 48.6608 62.9405 48.6051 62.9639 48.5555C62.9888 48.5075 63.0294 48.4719 63.0808 48.4564L66.1689 47.5073ZM53.2301 45.8598C53.5482 45.2931 54.0582 44.7171 54.5339 44.2216C54.6369 44.1148 54.7866 44.0528 54.9441 44.0528H62.1372C62.2932 44.0528 62.4429 44.1132 62.5443 44.2185C63.0231 44.7186 63.5378 45.2977 63.856 45.8706C63.9074 45.9635 63.8263 46.0673 63.7109 46.0673H53.3673C53.2503 46.0688 53.1755 45.9542 53.2301 45.8598ZM50.8844 47.5073L53.974 48.4564C54.0239 48.4719 54.066 48.5075 54.091 48.5555C54.1159 48.6035 54.1206 48.6608 54.1035 48.7135L53.7978 49.7184C53.7666 49.8205 53.6683 49.8825 53.5685 49.8624L52.4861 49.6518C51.6189 49.483 50.9296 48.7909 50.7253 47.8866L50.6847 47.707C50.6582 47.5816 50.7674 47.4717 50.8844 47.5073Z" fill="#F7FAFC"/>
<path d="M16.8479 42.5145L19.2623 40.7896V53.8409C19.2623 54.2682 19.6116 54.6151 20.0421 54.6151H28.6248V49.5054C28.6248 44.0102 36.0176 44.0102 36.0176 49.5054V54.6151H45.0105C45.441 54.6151 45.7904 54.2682 45.7904 53.8409V40.8856L48.0706 42.516C48.4215 42.7669 48.9097 42.6895 49.1639 42.3442L51.7732 38.803C52.0258 38.4608 51.9416 37.9808 51.5891 37.7408L45.4192 33.5556V25.761C45.4192 25.504 45.2102 25.2965 44.9513 25.2965H38.8858C38.6269 25.2965 38.4179 25.504 38.4179 25.761V28.8036L33.1026 25.1974C32.7158 24.9342 32.2027 24.9342 31.8143 25.1974L13.3293 37.7377C12.9769 37.9762 12.8942 38.4577 13.1453 38.7999L15.7546 42.3411C16.0104 42.6879 16.4986 42.7653 16.8479 42.5145ZM35.9817 39.1313H28.6592V38.6265C29.0865 34.754 35.5544 34.754 35.9817 38.6265V39.1313Z" fill="#F7FAFC"/>
</svg>
