<svg width="80" height="80" viewBox="0 0 80 80" fill="none" xmlns="http://www.w3.org/2000/svg">
<path d="M23.6343 26.4161C23.2601 26.4161 22.958 26.7246 22.958 27.1066V31.1935H19.7484C19.3354 31.1935 19 31.5359 19 31.9576V52.3238C19 52.7455 19.3354 53.0879 19.7484 53.0879H22.958V57.1747C22.958 57.5568 23.2601 57.8653 23.6343 57.8653C24.0085 57.8653 24.3106 57.5568 24.3106 57.1747V53.0879H27.5203C27.9332 53.0879 28.2686 52.7455 28.2686 52.3238V31.9576C28.2686 31.5359 27.9332 31.1935 27.5203 31.1935H24.3106V27.1095C24.3106 26.7274 24.0085 26.4161 23.6343 26.4161Z" fill="#F7FAFC"/>
<path d="M34.7794 21.0728C34.4052 21.0728 34.1031 21.3812 34.1031 21.7633V27.1011H30.8934C30.4805 27.1011 30.1451 27.4435 30.1451 27.8652V36.0389C30.1451 36.4606 30.4805 36.803 30.8934 36.803H34.1031V47.0087C34.1031 47.3908 34.4052 47.6993 34.7794 47.6993C35.1536 47.6993 35.4557 47.3908 35.4557 47.0087V36.803H38.6653C39.0783 36.803 39.4137 36.4606 39.4137 36.0389V27.8652C39.4137 27.4435 39.0783 27.1011 38.6653 27.1011H35.4557V21.7633C35.4557 21.3812 35.1536 21.0728 34.7794 21.0728ZM37.9197 35.2747H35.4585H34.1059H31.6446V28.6294H34.1059H35.4585H37.9197V35.2747Z" fill="#F7FAFC"/>
<path d="M45.9244 34.2049C45.5502 34.2049 45.2481 34.5134 45.2481 34.8954V36.803H42.0385C41.6255 36.803 41.2901 37.1454 41.2901 37.5671V48.8427C41.2901 49.2644 41.6255 49.6068 42.0385 49.6068H45.2481V58.6267C45.2481 59.0088 45.5502 59.3173 45.9244 59.3173C46.2986 59.3173 46.6007 59.0088 46.6007 58.6267V49.6068H49.8104C50.2233 49.6068 50.5587 49.2644 50.5587 48.8427V37.5671C50.5587 37.1454 50.2233 36.803 49.8104 36.803H46.6035V34.8954C46.6035 34.5134 46.2986 34.2049 45.9244 34.2049Z" fill="#F7FAFC"/>
<path d="M57.0695 20C56.6953 20 56.3932 20.3085 56.3932 20.6906V25.0802H53.1835C52.7706 25.0802 52.4352 25.4227 52.4352 25.8444V46.2105C52.4352 46.6322 52.7706 46.9747 53.1835 46.9747H56.3932V51.9615C56.3932 52.3436 56.6953 52.6521 57.0695 52.6521C57.4437 52.6521 57.7458 52.3436 57.7458 51.9615V46.9747H60.9554C61.3684 46.9747 61.7038 46.6322 61.7038 46.2105V25.8444C61.7038 25.4227 61.3684 25.0802 60.9554 25.0802H57.7486V20.6906C57.7486 20.3085 57.4437 20 57.0695 20ZM60.2098 45.4464H57.7486H56.396H53.9347V26.6085H56.396H57.7486H60.2098V45.4464Z" fill="#F7FAFC"/>
</svg>
