<svg width="95" height="91" viewBox="0 0 95 91" fill="none" xmlns="http://www.w3.org/2000/svg">
<path d="M90.4915 63.7H85.9661V53.0833C85.9661 52.6811 85.8072 52.2953 85.5243 52.0109C85.2414 51.7264 84.8577 51.5667 84.4576 51.5667H49.7627C49.3626 51.5667 48.979 51.7264 48.6961 52.0109C48.4132 52.2953 48.2542 52.6811 48.2542 53.0833V65.2166C48.2542 65.6189 48.4132 66.0047 48.6961 66.2891C48.979 66.5735 49.3626 66.7333 49.7627 66.7333H54.2881V75.8333H51.2712V71.2833C51.2712 70.8811 51.1123 70.4953 50.8294 70.2109C50.5465 69.9264 50.1628 69.7666 49.7627 69.7666H39.2034V65.2166C39.2034 64.8144 39.0445 64.4286 38.7616 64.1442C38.4787 63.8598 38.095 63.7 37.6949 63.7H22.6102C22.2101 63.7 21.8264 63.8598 21.5435 64.1442C21.2606 64.4286 21.1017 64.8144 21.1017 65.2166V69.7666H4.50847C4.1084 69.7666 3.72472 69.9264 3.44183 70.2109C3.15893 70.4953 3 70.8811 3 71.2833V77.35C3 77.7522 3.15893 78.138 3.44183 78.4224C3.72472 78.7068 4.1084 78.8666 4.50847 78.8666H6.01695V81.9H4.50847C4.1084 81.9 3.72472 82.0598 3.44183 82.3442C3.15893 82.6286 3 83.0144 3 83.4166V89.4833C3 89.8855 3.15893 90.2713 3.44183 90.5557C3.72472 90.8402 4.1084 91 4.50847 91H84.4576C84.8577 91 85.2414 90.8402 85.5243 90.5557C85.8072 90.2713 85.9661 89.8855 85.9661 89.4833V78.8666H90.4915C90.8916 78.8666 91.2753 78.7068 91.5582 78.4224C91.8411 78.138 92 77.7522 92 77.35V65.2166C92 64.8144 91.8411 64.4286 91.5582 64.1442C91.2753 63.8598 90.8916 63.7 90.4915 63.7V63.7ZM82.9492 63.7H70.8814V54.6H82.9492V63.7ZM70.8814 75.8333V66.7333H73.8983V75.8333H70.8814ZM39.2034 81.9V78.8666H51.2712V81.9H39.2034ZM36.1864 78.8666V81.9H24.1186V78.8666H36.1864ZM21.1017 75.8333V72.8H33.1695V75.8333H21.1017ZM21.1017 78.8666V81.9H9.0339V78.8666H21.1017ZM33.1695 84.9333V87.9666H21.1017V84.9333H33.1695ZM36.1864 84.9333H48.2542V87.9666H36.1864V84.9333ZM51.2712 84.9333H52.7797C53.1797 84.9333 53.5634 84.7735 53.8463 84.4891C54.1292 84.2046 54.2881 83.8189 54.2881 83.4166V78.8666H61.8305V87.9666H51.2712V84.9333ZM64.8475 78.8666H67.8644V87.9666H64.8475V78.8666ZM64.8475 63.7V54.6H67.8644V63.7H64.8475ZM51.2712 54.6H61.8305V63.7H51.2712V54.6ZM57.3051 66.7333H67.8644V75.8333H57.3051V66.7333ZM48.2542 75.8333H36.1864V72.8H48.2542V75.8333ZM24.1186 66.7333H36.1864V69.7666H24.1186V66.7333ZM6.01695 72.8H18.0847V75.8333H6.01695V72.8ZM6.01695 84.9333H18.0847V87.9666H6.01695V84.9333ZM82.9492 87.9666H70.8814V78.8666H82.9492V87.9666ZM88.9831 75.8333H76.9153V66.7333H88.9831V75.8333Z" fill="#364E65"/>
<path d="M22.6101 60.6665V43.9832C22.61 43.581 22.4511 43.1952 22.1682 42.9108C21.8853 42.6263 21.5016 42.4666 21.1016 42.4666H15.0677C14.6676 42.4666 14.2839 42.6263 14.001 42.9108C13.7181 43.1952 13.5592 43.581 13.5592 43.9832V66.7332H16.5762V45.4999H19.5931V60.6665H22.6101Z" fill="#364E65"/>
<path d="M37.6949 60.6666V36.4C37.6949 35.9977 37.536 35.612 37.2531 35.3275C36.9702 35.0431 36.5865 34.8833 36.1864 34.8833H30.1525C29.7524 34.8833 29.3688 35.0431 29.0859 35.3275C28.803 35.612 28.644 35.9977 28.644 36.4V60.6666H31.661V37.9166H34.6779V60.6666H37.6949Z" fill="#364E65"/>
<path d="M52.7796 48.5333V40.95C52.7796 40.5478 52.6207 40.162 52.3378 39.8776C52.0549 39.5931 51.6712 39.4334 51.2711 39.4333H45.2372C44.8372 39.4334 44.4535 39.5931 44.1706 39.8776C43.8877 40.162 43.7288 40.5478 43.7288 40.95V48.5333H46.7457V42.4667H49.7627V48.5333H52.7796Z" fill="#364E65"/>
<path d="M67.8644 48.5333V36.4C67.8644 35.9977 67.7055 35.612 67.4226 35.3275C67.1397 35.0431 66.756 34.8833 66.356 34.8833H60.3221C59.922 34.8833 59.5383 35.0431 59.2554 35.3275C58.9725 35.612 58.8136 35.9977 58.8136 36.4V48.5333H61.8305V37.9166H64.8475V48.5333H67.8644Z" fill="#364E65"/>
<path d="M82.9492 48.5331V24.2664C82.9492 23.8642 82.7902 23.4784 82.5073 23.194C82.2244 22.9096 81.8408 22.7498 81.4407 22.7498H75.4068C75.0067 22.7498 74.623 22.9096 74.3401 23.194C74.0572 23.4784 73.8983 23.8642 73.8983 24.2664V48.5331H76.9153V25.7831H79.9322V48.5331H82.9492Z" fill="#364E65"/>
<path d="M18.5264 38.9891C18.8093 39.2735 19.1931 39.4333 19.5932 39.4333C19.9932 39.4333 20.377 39.2735 20.6599 38.9891L37.6948 21.8616L51.7129 35.9557C51.9958 36.2402 52.3795 36.3999 52.7796 36.3999C53.1797 36.3999 53.5634 36.2402 53.8463 35.9557L73.8982 15.7949V18.2C73.8982 18.6022 74.0572 18.988 74.3401 19.2724C74.623 19.5569 75.0066 19.7167 75.4067 19.7167H81.4406C81.8407 19.7167 82.2244 19.5569 82.5073 19.2724C82.7902 18.988 82.9491 18.6022 82.9491 18.2V1.51667C82.9491 1.11442 82.7902 0.728654 82.5073 0.444225C82.2244 0.159796 81.8407 4.02237e-06 81.4406 0H64.8474C64.4473 4.02237e-06 64.0636 0.159796 63.7807 0.444225C63.4979 0.728654 63.3389 1.11442 63.3389 1.51667V7.58333C63.3389 7.98557 63.4979 8.37134 63.7807 8.65577C64.0636 8.9402 64.4473 9.09999 64.8474 9.09999H67.2395L52.7796 23.6384L38.7616 9.54424C38.4786 9.25982 38.0949 9.10004 37.6948 9.10004C37.2948 9.10004 36.9111 9.25982 36.6281 9.54424L14.001 32.2942C13.7181 32.5787 13.5592 32.9644 13.5592 33.3666C13.5592 33.7689 13.7181 34.1546 14.001 34.4391L18.5264 38.9891ZM37.6948 12.7616L51.7129 26.8557C51.9958 27.1402 52.3795 27.2999 52.7796 27.2999C53.1797 27.2999 53.5634 27.1402 53.8463 26.8557L71.948 8.65576C72.1589 8.44363 72.3026 8.17338 72.3608 7.87919C72.4189 7.58499 72.389 7.28005 72.2749 7.00293C72.1607 6.72581 71.9674 6.48895 71.7193 6.3223C71.4713 6.15565 71.1796 6.06669 70.8813 6.06666H66.3559V3.03333H79.9321V16.6833H76.9152V12.1333C76.9152 11.8333 76.8267 11.5401 76.661 11.2907C76.4952 11.0413 76.2596 10.8469 75.9839 10.7321C75.7083 10.6173 75.405 10.5873 75.1124 10.6458C74.8197 10.7043 74.5509 10.8488 74.34 11.0609L52.7796 32.7384L38.7616 18.6442C38.4786 18.3598 38.0949 18.2 37.6948 18.2C37.2948 18.2 36.9111 18.3598 36.6281 18.6442L19.5932 35.7717L17.201 33.3666L37.6948 12.7616Z" fill="#364E65"/>
</svg>
