<svg width="95" height="91" viewBox="0 0 95 91" fill="none" xmlns="http://www.w3.org/2000/svg">
<path d="M91.4833 54.6H85.4167V42.1707L89.3703 43.8611C89.601 43.9598 89.8525 43.9997 90.1024 43.9773C90.3523 43.9548 90.5927 43.8707 90.8021 43.7325C91.0115 43.5944 91.1833 43.4064 91.3022 43.1854C91.4211 42.9645 91.4834 42.7176 91.4833 42.4667C91.4854 39.7729 90.8516 37.1166 89.6337 34.7139C88.4157 32.3112 86.6479 30.2298 84.4739 28.6391L83.6077 23.0085C83.1996 20.399 82.1474 17.9325 80.5465 15.832C78.9455 13.7314 76.8461 12.063 74.4382 10.9778L70.1274 0.91922C70.0105 0.646401 69.8161 0.413889 69.5683 0.250494C69.3205 0.0871001 69.0302 4.75172e-06 68.7333 0H55.0833V3.03333H58.1167V4.36338L56.6454 10.2488C56.5895 10.4724 56.5853 10.7058 56.6331 10.9313C56.6809 11.1567 56.7794 11.3683 56.9213 11.55C57.0631 11.7317 57.2445 11.8786 57.4516 11.9797C57.6587 12.0808 57.8862 12.1333 58.1167 12.1333H59.6333V15.1667C59.6335 15.5489 59.7781 15.917 60.0381 16.1971C60.2981 16.4773 60.6544 16.6489 61.0355 16.6775L59.0851 21.5534C58.8003 22.2666 58.6254 23.0189 58.5666 23.7845L54.1373 29.0996L40.2527 35.5075L39.0224 35.0155L31.4206 31.2146L31.8305 30.0876L39.5871 31.8137C39.8136 31.8642 40.0486 31.862 40.274 31.8073C40.4995 31.7527 40.7094 31.647 40.8875 31.4984L49.9875 23.9151C50.0229 23.8858 50.0568 23.855 50.0892 23.8225L53.8809 20.0309C54.3205 19.5913 54.6692 19.0694 54.9071 18.495C55.145 17.9206 55.2674 17.305 55.2674 16.6833C55.2674 16.0616 55.145 15.446 54.9071 14.8717C54.6692 14.2973 54.3205 13.7754 53.8809 13.3358C53.4413 12.8962 52.9194 12.5475 52.345 12.3096C51.7706 12.0717 51.155 11.9492 50.5333 11.9492C49.9116 11.9492 49.296 12.0717 48.7217 12.3096C48.1473 12.5475 47.6254 12.8962 47.1858 13.3358L45.9833 14.5383V13.65C45.9833 13.2478 45.8236 12.862 45.5391 12.5776C45.2547 12.2931 44.8689 12.1333 44.4667 12.1333C44.0644 12.1333 43.6787 12.2931 43.3942 12.5776C43.1098 12.862 42.95 13.2478 42.95 13.65V17.4417L38.3485 20.8929L31.6547 16.4303C31.8634 16.2922 32.0346 16.1044 32.1531 15.8839C32.2715 15.6634 32.3334 15.417 32.3333 15.1667V12.1333H33.85C34.0805 12.1333 34.3079 12.0808 34.5151 11.9797C34.7222 11.8786 34.9036 11.7317 35.0454 11.55C35.1872 11.3683 35.2858 11.1567 35.3336 10.9313C35.3814 10.7058 35.3772 10.4724 35.3213 10.2488L33.85 4.36338V3.03333H36.8833V0H23.2333C22.9365 4.75172e-06 22.6462 0.0871001 22.3984 0.250494C22.1506 0.413889 21.9562 0.646401 21.8392 0.91922L17.5081 11.0253L12.9981 13.2803C11.5276 14.0214 10.337 15.2192 9.60465 16.694C8.8723 18.1688 8.63766 19.8413 8.93592 21.4607L10.0186 27.235C7.54376 28.93 5.51991 31.2033 4.12258 33.8576C2.72526 36.5119 1.99666 39.467 2.00001 42.4667C2.00001 42.7252 2.0661 42.9794 2.192 43.2052C2.3179 43.4311 2.49944 43.6209 2.71936 43.7568C2.93928 43.8928 3.1903 43.9702 3.44857 43.9818C3.70684 43.9934 3.9638 43.9388 4.19503 43.8232L12.3631 39.7391L12.5144 40.5457L8.80983 45.1766C8.06517 46.1105 7.55089 47.2066 7.30863 48.3763C7.06637 49.5459 7.10293 50.7561 7.41535 51.909L10.9219 64.7666L6.99416 68.6942C6.75077 68.9378 6.59741 69.2569 6.55927 69.5991L5.0426 83.2491C5.03654 83.3048 5.03357 83.3607 5.03372 83.4167H5.03334V89.4833C5.03336 89.8856 5.19316 90.2713 5.47759 90.5558C5.76201 90.8402 6.14777 91 6.55001 91H32.3333C32.6678 91 32.9929 90.8895 33.258 90.6856C33.5232 90.4817 33.7135 90.1959 33.7993 89.8726C33.8851 89.5493 33.8617 89.2067 33.7327 88.8982C33.6036 88.5896 33.3762 88.3323 33.0858 88.1664L23.4667 82.6698L27.738 65.5845C27.7681 65.4642 27.7834 65.3407 27.7833 65.2167V41.2174L27.9278 40.8202L34.7507 43.8526C34.7597 43.8566 34.7689 43.8592 34.7779 43.863C34.7866 43.8667 34.7947 43.8713 34.8035 43.8748L39.5003 45.7535C40.0714 45.982 40.6809 46.0992 41.296 46.0987C42.0339 46.0981 42.7624 45.9326 43.4282 45.6145C44.094 45.2963 44.6803 44.8334 45.1443 44.2596L60.2308 37.7941C60.4081 37.7181 60.5694 37.6089 60.7059 37.4725L62.2573 35.921L64.1666 41.1712L62.6696 65.1221C62.66 65.2775 62.6743 65.4335 62.712 65.5845L66.9833 82.6698L57.3643 88.1664C57.0738 88.3323 56.8464 88.5896 56.7174 88.8982C56.5883 89.2067 56.5649 89.5493 56.6507 89.8726C56.7366 90.1959 56.9268 90.4817 57.192 90.6856C57.4571 90.8895 57.7822 91 58.1167 91H85.4167C85.6472 91 85.8746 90.9475 86.0817 90.8464C86.2889 90.7453 86.4702 90.5983 86.6121 90.4167C86.7539 90.235 86.8525 90.0234 86.9003 89.7979C86.9481 89.5725 86.9439 89.3391 86.888 89.1155L85.4167 83.2302V74.3167H91.4833C91.8856 74.3166 92.2713 74.1568 92.5558 73.8724C92.8402 73.588 93 73.2022 93 72.8V56.1167C93 55.7144 92.8402 55.3287 92.5558 55.0442C92.2713 54.7598 91.8856 54.6 91.4833 54.6ZM79.35 54.6V51.5667H82.3833V54.6H79.35ZM66.7623 39.4333L61.85 25.9248C61.4673 24.8736 61.4857 23.7183 61.9015 22.6798L63.5832 18.4757L67.1219 19.3604C66.967 22.7227 67.6114 26.0738 69.0023 29.1389C70.3932 32.2039 72.4909 34.8956 75.1234 36.993L75.3452 39.4333H66.7623ZM88.2484 40.0824L85.4167 38.8719V34.8833C85.4166 34.8061 85.4108 34.729 85.3991 34.6526L85.2191 33.4825C86.7886 35.3797 87.8331 37.6554 88.2484 40.0824ZM80.6095 23.4698L82.3833 34.9992V48.5333H79.2184L77.827 33.2293C77.8237 33.1919 77.819 33.1546 77.8128 33.1173L76.2961 24.0173L73.3039 24.516L74.6033 32.3122C72.9996 30.4647 71.7836 28.3138 71.0277 25.9871C70.2718 23.6604 69.9913 21.2055 70.203 18.7683L73.766 14.0176C75.572 14.941 77.1336 16.2789 78.323 17.9218C79.5125 19.5647 80.296 21.4659 80.6095 23.4698L80.6095 23.4698ZM60.0592 9.1L61.1046 4.91787C61.1348 4.79757 61.15 4.67402 61.15 4.55V3.03333H67.7332L71.5439 11.9249L68.1242 16.4843L65.6332 15.8617L68.2892 13.2058C68.43 13.065 68.5418 12.8978 68.618 12.7138C68.6942 12.5297 68.7334 12.3325 68.7334 12.1333C68.7334 11.9341 68.6942 11.7369 68.618 11.5529C68.5418 11.3689 68.43 11.2017 68.2892 11.0608C68.1483 10.92 67.9811 10.8082 67.7971 10.732C67.6131 10.6558 67.4159 10.6166 67.2167 10.6166C67.0175 10.6166 66.8203 10.6558 66.6362 10.732C66.4522 10.8082 66.285 10.92 66.1442 11.0608L63.5552 13.65H62.6667V10.6167C62.6667 10.2144 62.5069 9.82867 62.2224 9.54424C61.938 9.25982 61.5522 9.10002 61.15 9.1H60.0592ZM27.2287 29.1186L24.235 25.5264C24.7416 23.5124 24.9473 21.4345 24.8453 19.3603L28.3835 18.4757L30.0652 22.6798C30.481 23.7182 30.4993 24.8735 30.1167 25.9246L28.6895 29.849L27.2287 29.1186ZM49.3309 15.4808C49.4888 15.3229 49.6762 15.1977 49.8826 15.1122C50.0889 15.0268 50.31 14.9828 50.5333 14.9828C50.7567 14.9828 50.9778 15.0268 51.1841 15.1122C51.3904 15.1977 51.5779 15.3229 51.7358 15.4808C51.8937 15.6388 52.019 15.8262 52.1045 16.0326C52.1899 16.2389 52.2339 16.46 52.2339 16.6833C52.2339 16.9067 52.1899 17.1278 52.1045 17.3341C52.019 17.5404 51.8937 17.7279 51.7358 17.8858L49.0168 20.6051L46.6117 18.2L49.3309 15.4808ZM39.31 23.9634L44.3243 20.2027L46.7698 22.6482L39.5184 28.691L32.876 27.2127L32.9674 26.9612C33.6053 25.2095 33.5747 23.284 32.8815 21.5534L32.5217 20.6539L37.5587 24.0119C37.8198 24.1859 38.1284 24.2747 38.4421 24.266C38.7557 24.2573 39.0589 24.1516 39.31 23.9634ZM24.2335 3.03333H30.8167V4.55C30.8167 4.67402 30.8319 4.79757 30.862 4.91787L31.9075 9.1H30.8167C30.4144 9.10002 30.0287 9.25982 29.7443 9.54424C29.4598 9.82867 29.3 10.2144 29.3 10.6167V13.65H28.4115L25.8225 11.0608C25.5381 10.7764 25.1523 10.6166 24.75 10.6166C24.3477 10.6166 23.9619 10.7764 23.6775 11.0608C23.393 11.3453 23.2332 11.7311 23.2332 12.1333C23.2332 12.5356 23.393 12.9214 23.6775 13.2058L26.3335 15.8617L23.8425 16.4843L20.4227 11.9249L24.2335 3.03333ZM14.3548 15.9933L18.2295 14.056L21.7658 18.7712C21.8769 20.0129 21.8595 21.2628 21.7139 22.501L19.8484 20.2625L17.5183 22.2042L25.1016 31.3042C25.2355 31.465 25.4012 31.5963 25.5883 31.6899L36.3651 37.0783L34.6582 40.4921L22.59 35.1285L12.7376 25.2759L11.9174 20.9016C11.7384 19.9299 11.8792 18.9264 12.3186 18.0415C12.758 17.1566 13.4725 16.4379 14.3548 15.9933V15.9933ZM5.24533 39.9067C5.5935 37.8211 6.36726 35.8295 7.51844 34.0558C8.66962 32.2822 10.1736 30.7645 11.9367 29.5972L12.4369 29.2653L16.4543 33.2827C15.0875 34.6419 13.512 35.7738 11.7876 36.6355L5.24533 39.9067ZM8.06668 87.9667V84.9333H9.1242L13.6742 87.9667H8.06668ZM16.2986 75.6889L17.1667 83.5009V86.6494L11.66 82.9783L16.2986 75.6889ZM20.2 87.9667V84.9333H21.3139L26.6221 87.9667H20.2ZM20.5325 81.9H20.0408L18.9181 71.7952C18.9108 71.7298 18.907 71.6633 18.9026 71.597L21.4795 67.5476C21.6344 67.3043 21.7167 67.0218 21.7167 66.7333V53.0833H18.6833V66.2916L8.75077 81.9H8.2446L9.5154 70.463L13.6892 66.2892C13.8782 66.1001 14.0139 65.8644 14.0825 65.606C14.1511 65.3476 14.1502 65.0756 14.0798 64.8177L10.3417 51.111C10.1542 50.4193 10.1323 49.6931 10.2777 48.9913C10.4231 48.2895 10.7317 47.6318 11.1785 47.0715L14.8624 42.4667H24.75V65.0299L20.5325 81.9ZM15.3921 39.4333L15.16 38.1956C16.4002 37.396 17.5528 36.468 18.5986 35.427L20.6442 37.4725C20.7758 37.6042 20.9306 37.7104 21.1007 37.786L24.8073 39.4333H15.3921ZM42.9848 42.0405C42.774 42.4568 42.4155 42.7794 41.9793 42.9453C41.5432 43.1111 41.0608 43.1082 40.6267 42.9371L37.4604 41.6706L39.1325 38.3264L42.0104 39.4774C42.2497 39.5731 42.4665 39.7174 42.6472 39.9012C42.8278 40.085 42.9684 40.3043 43.0599 40.5452C43.1515 40.786 43.1921 41.0433 43.1792 41.3007C43.1663 41.5581 43.1001 41.81 42.9848 42.0405L42.9848 42.0405ZM58.7674 35.1211L46.1646 40.5221C46.0689 39.8331 45.8267 39.1727 45.4544 38.5852C45.0821 37.9977 44.5883 37.4967 44.0061 37.1161L55.7189 31.7104C55.9234 31.616 56.1043 31.4772 56.2484 31.3042L59.263 27.6867L61.1133 32.775L58.7674 35.1211ZM67.1248 42.4667H75.621L76.3167 50.1181V54.6H70.25C69.8478 54.6 69.462 54.7598 69.1776 55.0442C68.8932 55.3287 68.7334 55.7144 68.7333 56.1167V72.8C68.7334 73.2022 68.8932 73.588 69.1776 73.8724C69.462 74.1568 69.8478 74.3166 70.25 74.3167H72.4219L70.5751 81.9H69.9175L65.7117 65.0767L67.1248 42.4667ZM73.2833 83.5983L75.1439 75.9585L78.8785 82.9193L73.2833 86.6494V83.5983ZM63.8279 87.9667L69.1362 84.9333H70.25V87.9667H63.8279ZM76.7758 87.9667L81.3258 84.9333H82.7159L83.4742 87.9667H76.7758ZM82.3833 81.9H81.774L77.7054 74.3167H82.3833V81.9ZM89.9667 71.2833H71.7667V63.7H79.35V68.25H82.3833V63.7H89.9667V71.2833ZM89.9667 60.6667H71.7667V57.6333H89.9667V60.6667Z" fill="#364E65"/>
</svg>
