<svg width="80" height="80" viewBox="0 0 80 80" fill="none" xmlns="http://www.w3.org/2000/svg">
<path d="M26.5805 52.1189C26.4489 52.2505 26.4489 52.4648 26.5805 52.5964L30.5621 56.578C30.6937 56.7096 30.908 56.7096 31.0414 56.578L38.1868 49.4326L33.724 44.9735L26.5805 52.1189Z" fill="#F7FAFC"/>
<path d="M23.1986 38.253C23.3001 38.4353 23.4919 38.55 23.7024 38.5538L29.6108 38.6534C29.827 38.6572 30.0357 38.7455 30.188 38.8978L34.9929 43.7046L39.4539 48.1655L47.6839 56.3956L47.8682 56.5799C47.9998 56.7114 48.2141 56.7114 48.3475 56.5799L52.3291 52.5983C52.4607 52.4667 52.4607 52.2524 52.3291 52.1189L43.9148 43.7046L50.765 36.8544C50.8966 36.7228 51.1109 36.7228 51.2425 36.8544L53.1732 38.785C53.3048 38.9166 53.3048 39.1309 53.1732 39.2625L52.7051 39.7306C52.5735 39.8622 52.5735 40.0765 52.7051 40.208L55.0324 42.5353C55.1639 42.6669 55.3783 42.6669 55.5117 42.5353L60.9013 37.1457C61.0329 37.0141 61.0329 36.7998 60.9013 36.6664L58.574 34.3391C58.4424 34.2075 58.2281 34.2075 58.0947 34.3391L57.7995 34.6342C57.6661 34.7677 57.4499 34.7658 57.3145 34.6361C50.4286 27.9908 45.7759 25.4511 40.9239 25.327C40.7209 25.3213 40.5367 25.4398 40.4577 25.6259C40.3788 25.812 40.4201 26.0282 40.563 26.171L46.3041 31.9122C46.4357 32.0438 46.4357 32.2581 46.3041 32.3915L39.4539 39.2418L34.9422 34.732C34.7861 34.576 34.6846 34.3748 34.6508 34.1586L33.5247 26.938C33.4928 26.735 33.3462 26.5658 33.1488 26.5057L24.3792 23.8795C24.2062 23.8268 24.0257 23.9378 23.9938 24.1145L23.8171 25.0638L23.5238 26.6448C23.4881 26.8422 23.584 27.0414 23.7607 27.1354L27.6201 29.1751C27.8099 29.2747 27.9453 29.4552 27.9923 29.6638L28.3081 31.0907C28.3532 31.2956 28.2931 31.5136 28.1445 31.664L26.2064 33.6605C26.0711 33.7996 25.853 33.8202 25.6951 33.7074L25.4563 33.5364L21.7718 30.9121C21.6007 30.7899 21.377 30.7617 21.1796 30.8369L19.7566 31.382C19.6381 31.4272 19.5686 31.54 19.5686 31.6584C19.5686 31.7054 19.5799 31.7543 19.6043 31.7994L23.1986 38.253Z" fill="#F7FAFC"/>
</svg>
