<svg width="95" height="91" viewBox="0 0 95 91" fill="none" xmlns="http://www.w3.org/2000/svg">
<path d="M25.0407 79.626C23.9691 78.556 22.5442 77.9669 21.0284 77.967H9.07429C5.94659 77.967 3.40161 80.5072 3.40161 83.6296C3.40143 85.1419 3.99113 86.5639 5.0624 87.6337C6.13404 88.7035 7.55872 89.2926 9.07465 89.2926H21.029C24.1569 89.2926 26.702 86.7525 26.702 83.63C26.7018 82.1176 26.112 80.6954 25.0407 79.626ZM13.6748 86.5455H9.07465C8.29512 86.5455 7.56203 86.2423 7.01088 85.692C6.45918 85.1413 6.15552 84.409 6.1557 83.6298C6.1557 82.022 7.46509 80.7141 9.07447 80.7141H13.675V86.5455H13.6748ZM21.029 86.5455H16.4289V80.7139H21.0288C21.8082 80.7137 22.5411 81.017 23.0924 81.5673C23.6439 82.1181 23.9478 82.8504 23.9478 83.6298C23.9478 85.2377 22.6386 86.5455 21.029 86.5455Z" fill="#364E65"/>
<path d="M71.2629 69.7644C72.0235 69.7644 72.6399 69.1495 72.6399 68.391V59.507C72.6399 56.4047 70.1116 53.8807 67.0035 53.8807H64.2079V50.7441H67.6033C68.8688 50.7441 69.8983 49.7174 69.8983 48.4551V40.9966C69.8983 39.7343 68.8688 38.7075 67.6033 38.7075H39.9754C38.7099 38.7075 37.6805 39.7343 37.6805 40.9966V48.4551C37.6805 49.7174 38.7099 50.7441 39.9754 50.7441H43.371V53.8807H40.5754C37.4672 53.8807 34.9387 56.4045 34.9387 59.507V88.5633C34.9387 89.9069 36.0342 91 37.3807 91H70.1982C71.5445 91 72.6399 89.9069 72.6399 88.5633V75.5331C72.6399 74.7745 72.0235 74.1596 71.2629 74.1596C70.5023 74.1596 69.8859 74.7745 69.8859 75.5331V78.1884H64.2155C65.1929 76.4586 65.7534 74.4642 65.7534 72.3406C65.7534 70.2169 65.1927 68.2225 64.2155 66.4927H69.8859V68.3908C69.8859 69.1495 70.5023 69.7644 71.2629 69.7644ZM40.4346 47.9971V41.4542H67.1445V47.9971H59.9352C59.1745 47.9971 58.5582 48.612 58.5582 49.3705C58.5582 50.129 59.1745 50.744 59.9352 50.744H61.454V53.8805H46.1251V50.744H52.5912C53.3519 50.744 53.9682 50.129 53.9682 49.3705C53.9682 48.612 53.3519 47.9971 52.5912 47.9971H40.4346ZM69.8861 80.9356V88.2531H69.8859H37.6928V80.9356H45.4944C47.6471 83.0069 50.5708 84.2848 53.7896 84.2848C57.0081 84.2848 59.9321 83.0069 62.0847 80.9356H69.8861ZM43.3636 78.1885H37.6928V66.4929H43.3636C42.3864 68.2227 41.8257 70.2171 41.8257 72.3408C41.8257 74.4645 42.3862 76.4587 43.3636 78.1885ZM44.5794 72.3408C44.5794 67.2695 48.7112 63.1439 53.7894 63.1439C58.8676 63.1439 62.9994 67.2697 62.9994 72.3408C62.9994 77.4121 58.8678 81.5377 53.7894 81.5377C48.7112 81.5379 44.5794 77.4121 44.5794 72.3408ZM62.0845 63.746C59.9319 61.6747 57.0083 60.3969 53.7896 60.3969C50.571 60.3969 47.6473 61.6745 45.4946 63.746H37.6928V59.5069C37.6928 57.9192 38.986 56.6276 40.5754 56.6276H67.0037C68.5929 56.6276 69.8859 57.9192 69.8859 59.5069V63.746H62.0845Z" fill="#364E65"/>
<path d="M58.4504 68.8408H49.1291C48.3685 68.8408 47.7522 69.4558 47.7522 70.2143C47.7522 70.9728 48.3685 71.5877 49.1291 71.5877H58.4504C59.211 71.5877 59.8273 70.9728 59.8273 70.2143C59.8273 69.4558 59.211 68.8408 58.4504 68.8408Z" fill="#364E65"/>
<path d="M57.0793 73.3066H50.5C49.7394 73.3066 49.123 73.9216 49.123 74.6801C49.123 75.4386 49.7394 76.0535 50.5 76.0535H57.0794C57.8401 76.0535 58.4564 75.4386 58.4564 74.6801C58.4564 73.9216 57.8399 73.3066 57.0793 73.3066Z" fill="#364E65"/>
<path d="M26.6615 64.8008H24.7097C21.8462 64.8008 19.5166 67.1259 19.5166 69.9841C19.5166 72.8424 21.846 75.1675 24.7097 75.1675H26.6615C29.5248 75.1675 31.8543 72.8424 31.8543 69.9841C31.8543 67.1261 29.5248 64.8008 26.6615 64.8008ZM26.6615 72.4204H24.7097C23.3649 72.4204 22.2707 71.3275 22.2707 69.9841C22.2707 68.6407 23.3649 67.5478 24.7097 67.5478H26.6615C28.0062 67.5478 29.1002 68.6407 29.1002 69.9841C29.1004 71.3275 28.0063 72.4204 26.6615 72.4204Z" fill="#364E65"/>
<path d="M17.803 57.9042C16.8223 56.925 15.518 56.3855 14.1308 56.3855C12.7435 56.3855 11.4395 56.9248 10.4582 57.9042L9.07809 59.2822C7.05397 61.3028 7.0536 64.591 9.07772 66.6116C10.0587 67.5909 11.3627 68.1302 12.7501 68.1302C14.1376 68.1302 15.4414 67.5909 16.4222 66.6116L17.8028 65.2334C19.8268 63.2128 19.8268 59.9246 17.803 57.9042ZM15.8545 63.2921L14.4737 64.6704C14.0133 65.1303 13.4012 65.3835 12.7501 65.3835C12.0989 65.3835 11.4867 65.1303 11.026 64.6703C10.0743 63.7202 10.0743 62.1741 11.0266 61.2237L12.4066 59.8455C12.8673 59.3856 13.4796 59.1324 14.1308 59.1324C14.7818 59.1324 15.3939 59.3856 15.8545 59.8455C16.8063 60.7959 16.8063 62.342 15.8545 63.2921Z" fill="#364E65"/>
<path d="M93.3412 31.5461C92.2697 30.4763 90.8448 29.887 89.3289 29.887C87.8133 29.887 86.3885 30.4763 85.317 31.5461L76.8644 39.9858C74.653 42.1933 74.653 45.7855 76.8642 47.9931C77.9356 49.0629 79.3603 49.6522 80.8761 49.6522C82.3918 49.6522 83.8165 49.0629 84.8882 47.9931L93.3412 39.5534C95.5527 37.3458 95.5527 33.7536 93.3412 31.5461ZM82.94 46.052C82.3887 46.6023 81.656 46.9055 80.8764 46.9055C80.0971 46.9055 79.3645 46.6024 78.8132 46.052C77.6742 44.9149 77.6742 43.0646 78.8132 41.9274L82.0654 38.6803L86.1946 42.803L82.94 46.052ZM91.3931 37.6121L88.1409 40.8593L84.0117 36.7366L87.2661 33.4874C87.8172 32.9371 88.5499 32.6338 89.3293 32.6338C90.1088 32.6338 90.8417 32.9369 91.3931 33.4876C92.5321 34.6248 92.5321 36.4749 91.3931 37.6121Z" fill="#364E65"/>
<path d="M77.4965 22.166H65.5415C62.4139 22.166 59.8691 24.7063 59.8691 27.8288C59.8691 30.9513 62.4141 33.4914 65.5422 33.4914H77.4965C80.6246 33.4914 83.1698 30.9513 83.1698 27.8288C83.1698 24.7061 80.6251 22.166 77.4965 22.166ZM70.1427 30.7443H65.5422C63.9326 30.7443 62.6234 29.4363 62.6234 27.8286C62.6234 26.221 63.9326 24.9129 65.5422 24.9129H70.1427V30.7443ZM77.4965 30.7441H72.8964V24.9125H77.4973V24.9127C79.1066 24.9127 80.4157 26.2208 80.4157 27.8284C80.4157 29.4363 79.1061 30.7441 77.4965 30.7441Z" fill="#364E65"/>
<path d="M88.302 54.3704C86.9359 53.0063 85.1192 52.2551 83.1867 52.2551C81.2544 52.2551 79.4373 53.0063 78.071 54.3704C75.2514 57.1856 75.2514 61.7663 78.071 64.5818C79.4373 65.9459 81.2542 66.6973 83.1867 66.6973C85.119 66.6973 86.9359 65.9459 88.302 64.5818C91.1214 61.7665 91.1214 57.1858 88.302 54.3704ZM83.1867 63.9502C81.9902 63.9502 80.8653 63.4851 80.0191 62.6403C78.6117 61.235 78.34 59.1203 79.1998 57.4388L85.2294 63.4591C84.6046 63.7795 83.9089 63.9502 83.1867 63.9502ZM87.1731 61.5132L81.1435 55.493C81.7681 55.1725 82.4641 55.0018 83.1865 55.0018C84.3828 55.0018 85.5075 55.467 86.3533 56.3115C87.7611 57.7172 88.0328 59.8317 87.1731 61.5132Z" fill="#364E65"/>
<path d="M60.7211 9.59868L51.7786 0.669872C51.3457 0.23788 50.7694 0 50.1557 0C49.5419 0 48.9658 0.23788 48.5327 0.669872L46.4265 2.77251C45.5322 3.66507 45.5322 5.11725 46.4263 6.00962L48.1747 7.75535L43.8476 12.0756L39.0888 7.32427C38.6561 6.89246 38.0798 6.65458 37.466 6.65458C36.8521 6.65458 36.2758 6.89264 35.8432 7.32464L32.6107 10.5522C31.717 11.4446 31.717 12.8966 32.6107 13.7891L34.152 15.3281L12.744 36.7028C12.2972 37.1491 12.0737 37.7351 12.0737 38.3213C12.0737 38.9075 12.2972 39.4935 12.744 39.9398L13.156 40.3512L11.6144 41.8906C10.7208 42.783 10.7208 44.235 11.6146 45.1277L12.9302 46.4413L1.40292 57.9503C0.865357 58.487 0.865724 59.3565 1.40384 59.8927C1.6728 60.1604 2.02493 60.2945 2.37707 60.2945C2.72975 60.2945 3.08225 60.1602 3.35121 59.8918L14.8767 48.3844L16.1903 49.6957C16.6228 50.1277 17.1993 50.3656 17.8131 50.3656C18.427 50.3656 19.0031 50.1277 19.4358 49.6957L20.9756 48.1584L21.3858 48.5679C21.8183 48.9999 22.3946 49.2378 23.0086 49.2378C23.6223 49.2378 24.1984 48.9999 24.6315 48.5679L46.0375 27.1955L47.5769 28.7325C48.0094 29.1647 48.5859 29.4027 49.1999 29.4027C49.8136 29.4027 50.3897 29.1649 50.8228 28.7329L54.0554 25.5053C54.9496 24.6127 54.9496 23.1606 54.0555 22.2682L49.2951 17.5152L53.6221 13.1947L55.3688 14.9386C55.8015 15.3704 56.3778 15.6083 56.9916 15.6083C57.6053 15.6083 58.1816 15.3704 58.6144 14.9384L60.7207 12.8354C61.6154 11.943 61.6152 10.4909 60.7211 9.59868ZM14.8767 44.4976L13.8864 43.5089L15.1025 42.2946L16.093 43.2833L14.8767 44.4976ZM17.8129 47.4296L16.8228 46.4413L18.0391 45.2269L19.029 46.2155L17.8129 47.4296ZM34.5799 34.7489L33.2773 33.4496C32.7394 32.9133 31.8677 32.9133 31.33 33.4496C30.7922 33.986 30.7922 34.8557 31.33 35.3918L32.6337 36.692L31.0476 38.2755L29.7433 36.9746C29.2054 36.4382 28.3337 36.4382 27.796 36.9746C27.2582 37.511 27.2582 38.3806 27.796 38.9168L29.1013 40.2188L27.5153 41.8023L26.2092 40.4996C25.6712 39.9632 24.7995 39.9632 24.2618 40.4996C23.724 41.0359 23.724 41.9056 24.2618 42.4418L25.5688 43.7456L23.0093 46.3012L15.0164 38.3206L29.7874 23.573L37.7803 31.5535L34.5799 34.7489ZM51.7839 23.8867L49.2002 26.4663L45.8315 23.1031C45.2941 22.5665 44.4222 22.566 43.8843 23.1021C43.3462 23.6381 43.3458 24.5078 43.8834 25.0444L44.0914 25.2518L39.7264 29.6099L31.7335 21.6293L36.0983 17.2714L38.9306 20.0993C39.4679 20.6358 40.3398 20.6364 40.8777 20.1002C41.4159 19.564 41.4162 18.6945 40.8787 18.1578L34.8821 12.1707L37.466 9.59099L51.7839 23.8867ZM47.3492 15.5719L45.794 14.0191L50.1211 9.69885L51.6762 11.2516L47.3492 15.5719ZM56.9919 12.6724L48.6979 4.39116L50.1555 2.93604L58.4493 11.2173L56.9919 12.6724Z" fill="#364E65"/>
</svg>
