<svg width="80" height="80" viewBox="0 0 80 80" fill="none" xmlns="http://www.w3.org/2000/svg">
<path d="M49.7997 24C49.2424 24 48.6719 24.0591 48.0882 24.1867C47.0601 24.4114 45.8683 24.8229 45.0059 25.3524C43.9722 25.9868 42.9648 26.7754 42.1401 27.6002C41.5207 28.2211 40.7411 28.905 40.2007 29.6098C40.1499 29.6764 40.0746 29.7107 39.9993 29.7107C39.924 29.7107 39.8486 29.6764 39.7978 29.6098C39.2574 28.9031 38.4779 28.2192 37.8565 27.6002C37.0299 26.7735 36.0245 25.9868 34.9908 25.3524C34.1284 24.8229 32.9346 24.4114 31.9085 24.1867C31.3248 24.0591 30.7543 24 30.1969 24C26.8359 24 24.0285 26.1734 22.7275 28.8002C21.0404 32.2004 21.9216 36.5206 23.8666 39.7855H28.2067L30.2421 36.6787C30.4304 36.391 30.7787 36.2444 31.1214 36.3072C31.4641 36.3701 31.7352 36.631 31.803 36.9663L32.688 41.256L33.0081 40.315C33.1229 39.9798 33.4374 39.7493 33.7989 39.7397C34.0211 39.734 34.2301 39.8121 34.3901 39.9493L37.0845 31.4956C37.2069 31.1108 37.591 30.8651 37.9978 30.9108C38.4063 30.9546 38.7246 31.2784 38.7566 31.6803L39.7281 43.6256L40.6037 40.4141C40.7035 40.0464 41.0443 39.7912 41.4322 39.7912H42.8217V41.4732H42.0893L40.0972 48.7763C39.9955 49.1478 39.6547 49.4011 39.2687 49.4011C39.2423 49.4011 39.216 49.3992 39.1896 49.3973C38.7735 49.3611 38.4459 49.0354 38.412 48.6278L37.3971 36.1434L35.3448 42.5875C35.2355 42.9285 34.9211 43.1647 34.5577 43.1761C34.3167 43.1856 34.0907 43.0942 33.925 42.9361L33.2999 44.7838C33.1775 45.1457 32.8217 45.3819 32.4338 45.3571C32.0459 45.3343 31.7221 45.0581 31.6449 44.6847L30.5396 39.3321L29.3929 41.0827C29.2348 41.3227 28.9636 41.4693 28.6718 41.4693H25.0321C26.0432 42.7532 27.2426 43.9247 28.5324 45.0181C32.0629 48.0163 36.4011 50.5955 38.6888 54.4471C38.9656 54.9118 39.4815 55.1442 39.9993 55.1442C40.5171 55.1442 41.0349 54.9118 41.3116 54.4471C43.5994 50.5955 47.9357 48.0163 51.4661 45.0181C53.0553 43.6694 54.5145 42.2084 55.6443 40.555C57.9188 37.2253 59.0956 32.4766 57.273 28.8021C55.9681 26.1734 53.1607 24 49.7997 24ZM43.0891 41.4732V39.7912H43.9402V41.4732H43.0891ZM44.4015 39.7912H45.0567V41.4732H44.4015V39.7912ZM45.7139 39.7912H46.1714V41.4732H45.7139V39.7912Z" fill="#F7FAFC"/>
</svg>
