<svg width="95" height="91" viewBox="0 0 95 91" fill="none" xmlns="http://www.w3.org/2000/svg">
<path d="M30.7554 37.0999C30.1899 36.6383 29.3599 36.7253 28.9011 37.2946C28.3685 37.9556 27.6624 38.3195 26.9125 38.3195C26.1626 38.3195 25.4565 37.9554 24.9238 37.2946C24.4652 36.7255 23.6348 36.6385 23.0695 37.0999C22.504 37.5614 22.4174 38.397 22.876 38.9661C23.9038 40.2417 25.3751 40.9732 26.9125 40.9732C28.4499 40.9732 29.921 40.2417 30.949 38.9661C31.4076 38.397 31.3209 37.5614 30.7554 37.0999Z" fill="#364E65"/>
<path d="M20.8875 29.2236C20.1594 29.2236 19.5691 29.8177 19.5691 30.5505V32.0665C19.5691 32.7992 20.1594 33.3933 20.8875 33.3933C21.6155 33.3933 22.2058 32.7992 22.2058 32.0665V30.5505C22.2058 29.8177 21.6155 29.2236 20.8875 29.2236Z" fill="#364E65"/>
<path d="M32.9375 29.2236C32.2094 29.2236 31.6191 29.8177 31.6191 30.5505V32.0665C31.6191 32.7992 32.2092 33.3933 32.9375 33.3933C33.6656 33.3933 34.2559 32.7992 34.2559 32.0665V30.5505C34.2559 29.8177 33.6656 29.2236 32.9375 29.2236Z" fill="#364E65"/>
<path d="M74.4374 44.6792C73.8719 44.2176 73.0417 44.3047 72.5831 44.874C72.0505 45.5348 71.3442 45.8988 70.5945 45.8988C69.8446 45.8988 69.1385 45.5348 68.6059 44.874C68.1474 44.3049 67.317 44.2176 66.7515 44.6792C66.186 45.1408 66.0996 45.9763 66.5582 46.5455C67.5858 47.8212 69.0571 48.5525 70.5945 48.5525C72.1319 48.5525 73.603 47.821 74.6308 46.5455C75.0894 45.9763 75.0029 45.1408 74.4374 44.6792Z" fill="#364E65"/>
<path d="M64.5693 36.8035C63.8413 36.8035 63.251 37.3975 63.251 38.1303V39.6463C63.251 40.3791 63.8413 40.9731 64.5693 40.9731C65.2974 40.9731 65.8877 40.3791 65.8877 39.6463V38.1303C65.8877 37.3975 65.2974 36.8035 64.5693 36.8035Z" fill="#364E65"/>
<path d="M76.6194 36.8035C75.8913 36.8035 75.301 37.3975 75.301 38.1303V39.6463C75.301 40.3791 75.8911 40.9731 76.6194 40.9731C77.3475 40.9731 77.9378 40.3791 77.9378 39.6463V38.1303C77.9378 37.3975 77.3475 36.8035 76.6194 36.8035Z" fill="#364E65"/>
<path d="M89.3312 63.0421L79.0028 58.8841C78.9469 58.8616 78.8952 58.833 78.8428 58.8054C85.9766 57.1717 89.3552 54.4399 89.5051 54.3162C89.8618 54.022 90.0398 53.5617 89.9746 53.1022C89.9597 52.9971 88.4815 42.4635 88.4815 32.0665C88.4815 22.14 80.4572 14.064 70.5941 14.064C60.7309 14.064 52.7068 22.1398 52.7068 32.0665C52.7068 34.7864 52.5841 38.1131 52.3845 41.2623L49.5064 42.7107L41.0583 38.4597C41.034 38.4474 41.0085 38.4386 40.9837 38.428C41.3856 37.2492 41.6484 36.0062 41.7449 34.7164C43.512 34.1669 44.7996 32.5072 44.7996 30.5506C44.7996 29.2328 44.2146 28.0506 43.2933 27.2506V18.4227C43.2933 15.9839 42.069 13.7021 40.0612 12.331C39.381 9.787 37.1098 8 34.4436 8H22.3934C15.8525 8 10.531 13.3557 10.531 19.9386V27.2504C9.60976 28.0503 9.02476 29.2326 9.02476 30.5504C9.02476 32.5071 10.3124 34.1667 12.0795 34.7162C12.4124 39.1707 14.6934 43.0845 18.0624 45.6034V49.2708L7.15971 52.5626C4.67169 53.314 3 55.5751 3 58.1895V72.9973C3 73.7301 3.59028 74.3242 4.31837 74.3242H4.50628V89.673C4.50628 90.4057 5.09656 90.9998 5.82465 90.9998C6.55274 90.9998 7.14301 90.4057 7.14301 89.673V74.3242H12.0377V89.673C12.0377 90.4057 12.6279 90.9998 13.356 90.9998C14.0841 90.9998 14.6744 90.4057 14.6744 89.673V66.7946C14.6744 65.6308 14.3353 64.5039 13.6941 63.5358L11.4405 60.1338C11.0366 59.524 10.218 59.3595 9.6124 59.7656C9.00648 60.172 8.84283 60.9959 9.24677 61.6057L11.5003 65.0079C11.8519 65.5387 12.0378 66.1565 12.0378 66.7946V71.6705H5.82465H5.63673V58.1895C5.63673 56.756 6.55326 55.5164 7.91768 55.1043L12.4436 53.7379C14.0196 60.3795 20.0052 65.2284 26.9125 65.2284C29.3941 65.2284 31.804 64.6125 33.9621 63.4407C34.7509 64.5235 36.023 65.2284 37.4563 65.2284H37.6442V65.4175C37.6442 69.8656 40.0756 73.7506 43.6693 75.8044V77.9686C43.6693 78.05 43.6177 78.1221 43.5408 78.148L38.623 79.7979C36.2357 80.5987 34.6317 82.8385 34.6317 85.3712V89.673C34.6317 90.4057 35.2219 90.9998 35.95 90.9998C36.6781 90.9998 37.2684 90.4057 37.2684 89.673V85.3712C37.2684 83.9826 38.1478 82.7544 39.4567 82.3155L40.9029 81.8302C42.8161 84.7019 46.0338 86.4521 49.5064 86.4521C52.9826 86.4521 56.1973 84.703 58.1102 81.8304L59.556 82.3155C60.8649 82.7546 61.7443 83.9826 61.7443 85.3712V89.673C61.7443 90.4057 62.3346 90.9998 63.0627 90.9998C63.7908 90.9998 64.3811 90.4057 64.3811 89.673V85.3712C64.3811 82.8385 62.777 80.5988 60.3897 79.798L55.4719 78.1482C55.3951 78.1223 55.3434 78.0503 55.3434 77.9688V75.8046C58.0341 74.2669 60.0707 71.7023 60.925 68.643C63.4164 71.2666 66.896 72.8086 70.5939 72.8086C76.432 72.8086 81.5545 69.0104 83.319 63.4803L88.3514 65.5061C89.5737 65.9981 90.3633 67.1721 90.3633 68.4967V74.7026H90.1754H85.4686V72.9975C85.4686 72.2647 84.8783 71.6707 84.1502 71.6707C83.4222 71.6707 82.8319 72.2647 82.8319 72.9975V89.6732C82.8319 90.4059 83.4222 91 84.1502 91C84.8783 91 85.4686 90.4059 85.4686 89.6732V77.3563H88.857V89.6732C88.857 90.4059 89.4473 91 90.1754 91C90.9034 91 91.4937 90.4059 91.4937 89.6732V77.3563H91.6816C92.0313 77.3563 92.3665 77.2165 92.6138 76.9678C92.8611 76.7189 93 76.3815 93 76.0294V68.4967C93.0005 66.0804 91.5603 63.9394 89.3312 63.0421ZM55.3437 32.0664C55.3437 23.603 62.1852 16.7176 70.5944 16.7176C79.0037 16.7176 85.845 23.603 85.845 32.0664C85.845 40.9762 86.9111 49.9831 87.2575 52.673C86.0761 53.4509 83.0513 55.1641 77.9379 56.29V54.1786C78.6382 53.7791 79.3087 53.3232 79.939 52.8105C82.5332 50.7001 84.3665 47.7444 85.1005 44.4881C85.3452 43.4031 85.4693 42.2842 85.4693 41.1624C85.4693 33.6628 80.0804 32.5861 74.8688 31.5448C71.5526 30.8823 68.1236 30.1971 65.393 27.9986C64.9974 27.68 64.4552 27.6179 63.9984 27.8389C63.5415 28.0598 63.2511 28.5246 63.2511 29.0348C63.2511 29.07 63.1937 32.5612 58.2246 33.8114C57.5182 33.9892 57.0887 34.7096 57.2654 35.4206C57.4419 36.1317 58.1578 36.5635 58.8641 36.3861C63.0231 35.3396 64.7198 32.9914 65.4117 31.2273C68.2706 32.9324 71.4732 33.5721 74.3553 34.1479C79.9257 35.2609 82.8326 36.0784 82.8326 41.1625C82.8326 42.0871 82.7304 43.0084 82.5292 43.9011C81.9254 46.5785 80.417 49.0097 78.2814 50.747C76.0841 52.5345 73.4259 53.4792 70.5944 53.4792C68.0133 53.4792 65.5567 52.6824 63.4719 51.1767C62.7081 49.0787 61.4814 47.1592 59.8626 45.5776V39.6466C59.8626 39.1866 59.626 38.7595 59.2373 38.5179C58.8487 38.2762 58.3635 38.2541 57.9546 38.4598L55.1082 39.8921C55.2643 37.1289 55.3437 34.5018 55.3437 32.0664ZM57.2258 41.793V46.595L52.4544 44.1941L57.2258 41.793ZM41.7872 41.793L46.5585 44.1941L41.7872 46.595V41.793ZM34.6317 56.3217V57.5818C33.6877 58.4022 33.1254 59.6027 33.1254 60.8694C31.2477 61.9859 29.1146 62.5747 26.9124 62.5747C21.1776 62.5747 16.2162 58.5131 14.975 52.9736L18.2321 51.9901C19.0356 56.0747 22.6217 59.1645 26.9125 59.1645C30.3197 59.1645 33.2813 57.2154 34.7596 54.368C34.6751 55.0123 34.6317 55.6648 34.6317 56.3217ZM20.6995 50.2557V47.1822C22.5913 48.0614 24.6958 48.5527 26.9125 48.5527C29.1292 48.5527 31.2338 48.0613 33.1256 47.1824V50.2576C33.1256 53.7055 30.3385 56.5106 26.9125 56.5106C23.4923 56.5106 20.7092 53.7147 20.6999 50.2746C20.6999 50.2682 20.6995 50.2619 20.6995 50.2557ZM26.9125 45.899C20.1643 45.899 14.6744 40.3739 14.6744 33.5823C14.6744 32.8496 14.0841 32.2555 13.356 32.2555C12.4219 32.2555 11.6618 31.4905 11.6618 30.5504C11.6618 29.6103 12.4218 28.8453 13.356 28.8453H16.3686C16.936 28.8453 17.4398 28.48 17.6193 27.9381L18.8294 24.2845C21.859 24.2157 31.2508 23.787 36.5396 21.1255C37.1909 20.7977 37.4549 20.0009 37.1292 19.3454C36.8036 18.69 36.0119 18.4242 35.3605 18.7521C29.686 21.6074 17.9919 21.6439 17.8745 21.6439C17.3071 21.6441 16.8033 22.0094 16.624 22.5513L15.4183 26.1918H13.356C13.2931 26.1918 13.2305 26.1939 13.1681 26.1966V19.9386C13.1681 14.8189 17.3067 10.6537 22.3937 10.6537H34.4439C36.0182 10.6537 37.3408 11.7957 37.5892 13.3688C37.6523 13.7686 37.8933 14.1175 38.2436 14.3163C39.7322 15.1613 40.657 16.7346 40.657 18.4225V26.1962C40.5946 26.1934 40.5322 26.1914 40.469 26.1914H38.9628C38.2347 26.1914 37.6444 26.7855 37.6444 27.5183C37.6444 28.2511 38.2347 28.8451 38.9628 28.8451H40.469C41.4032 28.8451 42.1632 29.6099 42.1632 30.5502C42.1632 31.4905 41.4033 32.2553 40.469 32.2553C39.741 32.2553 39.1507 32.8494 39.1507 33.5822C39.1507 40.3737 33.6608 45.899 26.9125 45.899ZM35.7621 50.258V45.6034C37.0736 44.6228 38.2199 43.4316 39.1505 42.0779V45.5774C37.6741 47.0199 36.5233 48.7433 35.7528 50.627C35.7579 50.5044 35.7621 50.3816 35.7621 50.258ZM55.4794 80.9476C54.028 82.7321 51.8476 83.7982 49.5065 83.7982C47.1683 83.7982 44.9865 82.7314 43.5345 80.9474L44.3748 80.6656C45.53 80.2782 46.3063 79.1942 46.3063 77.9688V76.9112C47.3251 77.199 48.3977 77.3563 49.5067 77.3563C50.6157 77.3563 51.6884 77.199 52.7072 76.9112V77.9688C52.707 79.1941 53.4831 80.278 54.6385 80.6654L55.4794 80.9476ZM60.0507 62.5747C59.3226 62.5747 58.7323 63.1687 58.7323 63.9015V65.2208C58.7323 65.2323 58.7321 65.2438 58.7323 65.2553V65.4175C58.7321 70.5372 54.5935 74.7024 49.5065 74.7024C44.4196 74.7024 40.2811 70.5372 40.2811 65.4175V63.9015C40.2811 63.1687 39.6909 62.5747 38.9628 62.5747H37.4565C36.5224 62.5747 35.7623 61.8099 35.7623 60.8696C35.7623 60.2645 36.0805 59.717 36.6133 59.4049C36.7323 59.3352 36.8358 59.2469 36.9255 59.1472C40.1845 59.0522 50.7488 58.4349 57.692 54.4418C58.3241 54.0782 58.5439 53.2678 58.1826 52.6315C57.8214 51.9951 57.0158 51.7741 56.3838 52.1377C50.3014 55.6356 40.7438 56.336 37.2686 56.4759V56.3217C37.2686 53.8539 38.0111 51.464 39.3565 49.4491C39.4618 49.617 39.6026 49.7628 39.7759 49.8705C39.9878 50.0022 40.2281 50.0687 40.469 50.0687C40.6705 50.0687 40.8725 50.0222 41.0586 49.9286L49.5067 45.6774L57.9548 49.9286C58.141 50.0222 58.3429 50.0687 58.5444 50.0687C58.7856 50.0687 59.0259 50.0022 59.2375 49.8705C59.4106 49.7628 59.5514 49.6169 59.6567 49.4491C61.0022 51.464 61.7447 53.8539 61.7447 56.3217V58.2582C61.7447 58.7305 61.9941 59.1673 62.4 59.4049C62.933 59.7172 63.2511 60.2645 63.2511 60.8696C63.2511 61.8097 62.4911 62.5747 61.5569 62.5747H60.0507V62.5747ZM70.5944 70.1545C66.9445 70.1545 63.5582 68.2844 61.587 65.2277C63.9611 65.2112 65.8877 63.2629 65.8877 60.8698C65.8877 59.6031 65.3254 58.4024 64.3814 57.582V56.3219C64.3814 55.7878 64.3528 55.2567 64.2967 54.7305C66.2516 55.6529 68.3859 56.1326 70.5944 56.1326C72.202 56.1326 73.7917 55.8645 75.3012 55.3579V57.3009C75.3012 59.0936 76.3698 60.6822 78.0235 61.348L80.8665 62.4924C79.504 67.0263 75.3432 70.1545 70.5944 70.1545Z" fill="#364E65"/>
<path d="M53.3497 67.4189C52.7842 66.9574 51.9539 67.0444 51.4953 67.6137C50.9625 68.2747 50.2564 68.6386 49.5067 68.6386C48.757 68.6386 48.0507 68.2747 47.5181 67.6137C47.0595 67.0446 46.2291 66.9574 45.6638 67.4189C45.0983 67.8805 45.0116 68.7161 45.4702 69.2852C46.4982 70.5606 47.9693 71.2923 49.5067 71.2923C51.0441 71.2923 52.5152 70.5608 53.5432 69.2854C54.0016 68.7163 53.915 67.8805 53.3497 67.4189Z" fill="#364E65"/>
<path d="M45.012 63.7184C45.7401 63.7184 46.3303 63.1243 46.3303 62.3915C46.3303 61.6587 45.7401 61.0647 45.012 61.0647C44.2839 61.0647 43.6936 61.6587 43.6936 62.3915C43.6936 63.1243 44.2839 63.7184 45.012 63.7184Z" fill="#364E65"/>
<path d="M53.9768 63.7184C54.7049 63.7184 55.2952 63.1243 55.2952 62.3915C55.2952 61.6587 54.7049 61.0647 53.9768 61.0647C53.2487 61.0647 52.6584 61.6587 52.6584 62.3915C52.6584 63.1243 53.2487 63.7184 53.9768 63.7184Z" fill="#364E65"/>
</svg>
