<svg width="80" height="80" viewBox="0 0 80 80" fill="none" xmlns="http://www.w3.org/2000/svg">
<path d="M19.6106 54.9161C19.6468 55.2128 19.8928 55.4428 20.1953 55.4451C20.5204 55.4474 20.7868 55.1783 20.7891 54.8448L20.8026 51.0868C20.2337 51.3191 19.7122 51.4548 19.2043 51.5054L19.6106 54.9161Z" fill="#F7FAFC"/>
<path d="M16.6533 54.854C16.6533 55.153 16.8745 55.4129 17.1747 55.4497C17.4976 55.4888 17.7933 55.2519 17.8294 54.923L18.2267 51.4985C17.7233 51.4387 17.2041 51.2961 16.6397 51.0592L16.6533 54.854Z" fill="#F7FAFC"/>
<path d="M16.8948 45.7695C16.9106 45.7833 16.9264 45.7948 16.9422 45.8063C16.949 45.8109 16.9558 45.8155 16.9603 45.8201C16.9648 45.8224 16.9693 45.8247 16.9738 45.827L16.4862 49.9391C16.4794 50.0564 16.5381 50.1737 16.633 50.2565C16.6713 50.291 16.7142 50.3209 16.7639 50.3416C17.3147 50.5808 17.8204 50.7211 18.308 50.774C18.457 50.7901 18.606 50.7993 18.7528 50.7993C18.8724 50.7993 18.9921 50.7924 19.114 50.7809C19.6264 50.7349 20.1569 50.5923 20.7394 50.3416C20.762 50.3324 20.78 50.3163 20.8003 50.3048C20.9358 50.2197 21.0261 50.0794 21.0171 49.9368L20.5452 45.9512C20.5588 45.9466 20.5701 45.942 20.5836 45.9351C20.8116 45.8454 21.0396 45.7511 21.2654 45.6522C21.5431 45.5211 21.8253 45.3992 22.1007 45.2612L22.3332 45.1439L22.3716 45.0933C22.7147 44.6425 23.0624 44.1986 23.3987 43.7433C23.7374 43.2902 24.076 42.8348 24.4056 42.3725C24.4733 42.2782 24.4711 42.1472 24.3943 42.0552C24.304 41.9471 24.1437 41.931 24.0376 42.023C23.6087 42.3909 23.1843 42.7635 22.7644 43.1407C22.3987 43.4627 22.042 43.7939 21.683 44.1227C21.4099 44.1503 21.1412 44.1871 20.8681 44.2193C20.5859 44.2607 20.3037 44.3044 20.026 44.3596C19.868 44.1986 19.6829 44.086 19.4819 44.0377V43.7548C20.7213 43.4236 21.6356 42.2782 21.6356 40.9121C21.6356 39.2884 20.3443 37.9729 18.7505 37.9729C17.1567 37.9729 15.8631 39.2907 15.8631 40.9121C15.8631 42.3219 16.8384 43.4995 18.1387 43.7847V44.0147C17.9536 44.0377 17.7753 44.1136 17.6172 44.2331C17.3396 44.0492 17.0574 43.8698 16.7752 43.6927C16.3959 43.465 16.0234 43.2304 15.6396 43.0119C15.2604 42.7865 14.8834 42.5565 14.4973 42.338C14.1158 42.1173 13.7298 41.8965 13.3392 41.6872C13.2444 41.6366 13.1225 41.6504 13.0435 41.7309C12.9419 41.8321 12.9419 41.9954 13.039 42.0966C13.3483 42.4185 13.6621 42.7336 13.9804 43.0441C14.2942 43.3592 14.6193 43.6605 14.9376 43.9687C15.2536 44.2814 15.5787 44.5804 15.8993 44.8863C16.2334 45.1853 16.5585 45.4843 16.8948 45.7695ZM18.1726 45.4866L17.9581 44.8518C18.0123 44.9047 18.0755 44.9507 18.1455 44.9898C18.1794 45.0082 18.2177 45.022 18.2539 45.0381C18.5722 45.1761 18.9876 45.1853 19.3194 45.0657C19.3781 45.045 19.4368 45.0197 19.4887 44.9898C19.5587 44.9507 19.6219 44.9047 19.6761 44.8518L19.4165 45.6223L18.8182 47.3909L18.1726 45.4866Z" fill="#F7FAFC"/>
<path d="M65.1087 52.6667C65.138 52.3838 65.1516 52.101 65.1764 51.8181C65.1764 51.8158 65.1764 51.8135 65.1764 51.8135C64.6549 52.0182 64.1425 52.1424 63.6323 52.1953C63.6548 52.3677 63.6797 52.5402 63.7068 52.7127C63.7519 52.9933 63.8151 53.2739 63.8535 53.5545L63.867 53.6511L64.0454 54.5227C64.1063 54.8286 64.1605 55.1345 64.2124 55.4427C64.2508 55.6635 64.4472 55.8268 64.673 55.813C64.9145 55.7969 65.0974 55.5853 65.0816 55.3369C65.0613 55.0264 65.0455 54.7136 65.0342 54.4031L65.0071 53.4671L65.0116 53.5177C65.0342 53.2348 65.0793 52.9496 65.1087 52.6667Z" fill="#F7FAFC"/>
<path d="M62.3952 52.7128C62.4245 52.5357 62.4493 52.3586 62.4719 52.1815C61.9595 52.1194 61.447 51.9814 60.9232 51.7653C60.9255 51.7837 60.9255 51.7998 60.9278 51.8182C60.9503 52.101 60.9661 52.3839 60.9955 52.6668C61.0248 52.9497 61.07 53.2326 61.0903 53.5155L61.0948 53.4649L61.0677 54.4009C61.0564 54.7137 61.0406 55.0242 61.0203 55.3347C61.0068 55.5601 61.1603 55.7647 61.3838 55.8038C61.6231 55.8452 61.8488 55.682 61.8917 55.4382C61.9437 55.13 62.0001 54.8241 62.0588 54.5182L62.2371 53.6466L62.2507 53.55C62.2868 53.274 62.35 52.9934 62.3952 52.7128Z" fill="#F7FAFC"/>
<path d="M59.282 44.4171L59.4242 44.4976C59.729 44.6701 60.0406 44.8288 60.3476 44.9944C60.4717 45.0588 60.5982 45.1209 60.7223 45.1853C60.7923 45.2198 60.8645 45.2543 60.9345 45.2888C61.0045 45.3233 61.0768 45.3578 61.1467 45.39L59.8622 50.6268C59.8306 50.7786 59.8983 50.9327 60.0338 51.0063C60.1895 51.0914 60.3453 51.165 60.4988 51.2363C61.0587 51.4893 61.6073 51.6503 62.1513 51.717C62.3432 51.74 62.5351 51.7538 62.7247 51.7538C62.876 51.7538 63.0295 51.7446 63.1808 51.7285C63.7248 51.6756 64.2689 51.5307 64.8265 51.2915C65.0206 51.2087 65.2148 51.1167 65.4134 51.0109C65.4518 50.9902 65.4834 50.9626 65.5083 50.9304C65.436 50.8223 65.339 50.7004 65.3141 50.5808L64.8265 47.5335L64.3276 45.4958C64.3479 45.482 64.3705 45.4728 64.3885 45.4567C64.4201 45.4314 64.4517 45.4061 64.4834 45.3808C64.5533 45.3256 64.6211 45.2704 64.691 45.2152C64.9258 45.0243 65.1606 44.8311 65.3931 44.6379L66.3774 43.7893C66.7002 43.4995 67.0276 43.2166 67.3481 42.9222C67.6687 42.6301 67.9893 42.3357 68.3031 42.0345C68.3731 41.9678 68.3934 41.862 68.3482 41.77C68.294 41.6596 68.1609 41.6136 68.0525 41.6711C67.6665 41.8689 67.2849 42.0759 66.9057 42.2828C66.5241 42.4875 66.1517 42.706 65.7747 42.9176L64.6572 43.5708C64.4834 43.6766 64.3095 43.7824 64.1357 43.8882C64.068 43.9296 64.0002 43.9733 63.9303 44.017C63.858 44.0607 63.788 44.1067 63.7158 44.1526C63.6029 44.0768 63.4833 44.0262 63.3568 43.9986V43.7594V43.6237C63.4155 43.6053 63.4697 43.5823 63.5262 43.5593C64.454 43.1844 65.1109 42.2644 65.1109 41.1858C65.1109 39.776 63.989 38.6329 62.6051 38.6329C61.2212 38.6329 60.0992 39.776 60.0992 41.1858C60.0992 42.3035 60.8036 43.2488 61.7834 43.5961C61.9143 43.6421 62.0497 43.6789 62.192 43.7019V43.7479V43.9825C62.0655 43.994 61.9391 44.0308 61.8217 44.0906C61.8127 44.0883 61.8059 44.0814 61.7969 44.0791C61.7089 44.0515 61.6208 44.0262 61.535 43.9986C61.4492 43.9733 61.3612 43.9457 61.2754 43.9204C61.1174 43.8744 60.9594 43.8307 60.7991 43.7847C60.4763 43.7019 60.1557 43.6145 59.8306 43.5363C59.4965 43.2787 59.1646 43.0188 58.8237 42.7658C58.4467 42.4806 58.0697 42.2 57.6837 41.9241C57.6047 41.8666 57.4918 41.8689 57.4151 41.9356C57.3225 42.0161 57.3112 42.1564 57.3902 42.2506C57.695 42.6163 58.0043 42.9751 58.3158 43.3293C58.6251 43.6881 58.9434 44.0377 59.2594 44.3895L59.282 44.4171ZM63.4088 44.378C63.4088 44.3826 63.4088 44.3849 63.4088 44.3895C63.4088 44.6793 63.3636 44.9461 63.2914 45.1669C63.1762 45.5142 62.9866 45.7419 62.7699 45.7419C62.5419 45.7419 62.3432 45.4866 62.2303 45.1048C62.1694 44.8955 62.131 44.6471 62.131 44.3803C62.1513 44.4033 62.1739 44.4194 62.1942 44.4401C62.2078 44.4516 62.2191 44.4654 62.2326 44.4746C62.6074 44.8104 62.9866 44.7943 63.3591 44.424C63.3772 44.4056 63.393 44.3941 63.4088 44.378Z" fill="#F7FAFC"/>
<path d="M59.1646 40.4751C59.3407 40.6752 59.6613 40.6292 59.7742 40.3877L60.3205 39.2309C60.4221 39.293 60.553 39.2884 60.6478 39.2033L60.7652 39.0952C60.8691 39.0009 60.8826 38.8468 60.8081 38.7318C60.8126 38.7295 60.8172 38.7318 60.8217 38.7295L62.0949 38.2764C62.3432 38.1867 62.4245 37.8694 62.2484 37.6693L61.5012 36.8183C61.3251 36.6182 61.0045 36.6642 60.8916 36.9057L60.307 38.1453V38.1476L60.2889 38.1269C60.1873 38.0096 60.0112 38.0004 59.8961 38.1039L59.7787 38.2097C59.6681 38.3109 59.6568 38.4811 59.7493 38.5961L58.5754 39.0147C58.3271 39.1021 58.2458 39.4218 58.4219 39.6219L59.1646 40.4751Z" fill="#F7FAFC"/>
<path d="M30.318 43.5477H27.3245L27.3832 55.3921C27.3855 55.9625 27.7873 56.4708 28.3585 56.5742C29.0019 56.6915 29.6182 56.2546 29.731 55.5991L30.6769 50.2013V47.7105C30.6769 47.538 30.7898 47.3954 30.9433 47.3471C30.9772 47.3356 31.0133 47.3287 31.0494 47.3287C31.0946 47.3287 31.1352 47.3379 31.1759 47.3517C31.3203 47.4046 31.4242 47.5426 31.4242 47.7082V50.1323L32.3633 55.5922C32.4604 56.1557 32.939 56.5857 33.5192 56.5903C34.1738 56.5949 34.7066 56.0591 34.7134 55.3944L34.8059 43.5477H31.8147H30.318Z" fill="#F7FAFC"/>
<path d="M46.7889 55.4887C46.8476 55.8889 47.123 56.181 47.4436 56.181H50.4687C50.7892 56.181 51.0647 55.8889 51.1234 55.4887L51.7419 49.3434H46.1681L46.7889 55.4887Z" fill="#F7FAFC"/>
<path d="M40.3008 24.9096C40.2421 24.9464 40.1902 24.9924 40.1496 25.0545L36.8965 30.3373L34.5103 32.467C34.4651 32.4601 34.4177 32.4532 34.3681 32.4532H31.948V31.8851C33.4673 31.478 34.5893 30.0728 34.5893 28.3962C34.5893 26.4022 33.0023 24.7854 31.045 24.7854C29.0877 24.7854 27.5007 26.4022 27.5007 28.3962C27.5007 30.0268 28.5617 31.4021 30.0178 31.8506V32.4509H27.8054C27.6993 32.4509 27.5978 32.4739 27.5029 32.5084C27.1666 32.5061 26.846 32.7085 26.7083 33.0419C26.5457 33.4375 26.3922 33.8377 26.2365 34.2356C26.0784 34.6335 25.934 35.0359 25.7804 35.4361C25.6315 35.8363 25.4757 36.2365 25.3312 36.639L24.9136 37.7958C24.5907 38.2995 24.2724 38.8077 23.9654 39.3252C23.6381 39.8864 23.313 40.4476 23.015 41.0317C22.9427 41.1766 22.9631 41.356 23.0805 41.4802C23.2272 41.6343 23.4665 41.6389 23.6177 41.4894C24.0805 41.0317 24.5162 40.5533 24.9497 40.0727C25.3786 39.5897 25.7962 39.0975 26.2071 38.6007L26.2478 38.5502L26.2997 38.4306L26.8166 37.2553C26.9905 36.8643 27.153 36.4688 27.3201 36.0755C27.3336 36.0433 27.3472 36.0111 27.3607 35.9766L27.3472 41.7217V42.023C27.3494 42.2047 27.4307 42.3657 27.5571 42.4783C27.6655 42.5749 27.8054 42.6347 27.9612 42.6324L30.4829 42.6232L31.6545 42.6186L34.2868 42.6071C34.4019 42.6071 34.508 42.5726 34.6006 42.5151C34.7767 42.4071 34.8963 42.2139 34.8941 41.9908L34.8963 41.7194L34.9279 34.8542C35.1153 34.7944 35.2869 34.6818 35.4223 34.5185L38.0094 31.3538L38.1043 31.2388L38.1246 31.1997L40.3076 26.8323V24.9096H40.3008ZM30.2458 32.8763H31.7358C31.808 32.8763 31.8622 32.9453 31.8441 33.0189L31.7516 33.3754L31.5439 34.1712L31.5304 34.2195L31.5258 34.2333C31.5033 34.3161 31.4288 34.3736 31.3452 34.3736H31.0224H30.9434H30.6386C30.5528 34.3736 30.4783 34.3161 30.458 34.2333L30.4535 34.2195L30.4422 34.1758L30.2323 33.3754L30.1397 33.0189C30.1217 32.9476 30.1736 32.8763 30.2458 32.8763ZM32.2437 39.3367L31.0788 40.6522C31.0269 40.7097 30.9366 40.7097 30.8847 40.6522L29.7198 39.3367C29.6611 39.2677 29.6385 39.1734 29.6634 39.086L30.738 35.1256L30.7944 34.9209H31.1691L31.2256 35.1256L32.3002 39.086C32.325 39.1734 32.3024 39.2677 32.2437 39.3367Z" fill="#F7FAFC"/>
<path d="M57.6476 40.7581L54.8528 37.2438L52.4146 33.0144C52.3921 32.9753 52.365 32.9339 52.3356 32.8971C51.9744 32.4256 51.3085 32.3428 50.8457 32.7085C50.7034 32.8212 50.6019 32.9661 50.5341 33.1225H50.0014V32.0645C51.3852 31.5723 52.3785 30.2361 52.3785 28.6584V28.6561C52.8865 28.6515 53.3967 28.4813 53.8256 28.134C54.8483 27.3084 54.4125 26.3217 53.6021 25.2799C52.7894 24.238 51.909 23.5366 50.8863 24.3645C50.5635 24.6267 50.3264 24.9556 50.1774 25.3167C49.7643 25.1442 49.3106 25.0476 48.8365 25.0476C46.8792 25.0476 45.2922 26.6644 45.2922 28.6584C45.2922 30.3074 46.378 31.6942 47.859 32.1266V33.1225H47.0643C47.0327 33.0857 47.0034 33.0466 46.965 33.0144L43.967 30.3396L40.7117 25.0545C40.6575 24.9694 40.5807 24.9073 40.4927 24.8728V26.8346L42.7457 31.2021L42.766 31.2412L42.8608 31.3561L45.1838 34.1965C45.0596 34.5461 45.0506 34.9463 45.1996 35.3326L45.8701 37.0782C46.141 37.7866 46.1274 38.5778 45.834 39.2769L44.1521 46.1352C43.9038 46.8711 44.1341 47.6623 44.6081 48.0602C44.8 48.2212 45.028 48.3178 45.2831 48.3178H46.0688H49.0419H51.848H52.8007C52.8345 48.3178 52.8661 48.3132 52.9 48.3086C53.7285 48.2258 54.2658 47.1287 53.9294 46.1352L52.2476 39.2769C51.9541 38.5801 51.9406 37.7866 52.2115 37.0782L52.4237 36.5263L53.6269 38.0994L53.6901 38.1822L53.6947 38.1868L56.9635 41.3951C57.1306 41.5584 57.3947 41.5745 57.5776 41.4227C57.7785 41.2594 57.8101 40.9604 57.6476 40.7581ZM49.8998 34.3161L49.078 36.6919C49.0284 36.8368 48.8274 36.8368 48.7778 36.6919L47.956 34.3161C47.938 34.2632 47.9335 34.208 47.9425 34.1574C47.9651 34.0056 48.0937 33.8814 48.2585 33.8814H49.5973C49.7621 33.8814 49.8907 34.0056 49.9133 34.1574C49.9223 34.208 49.9178 34.2632 49.8998 34.3161Z" fill="#F7FAFC"/>
</svg>
