<svg width="103" height="100" viewBox="0 0 103 100" fill="none" xmlns="http://www.w3.org/2000/svg">
<path d="M11.6667 44.9999L61.3333 45.0001C62.2537 45.0001 63 44.2538 63 43.3334C63 42.413 62.2537 41.6667 61.3333 41.6667L11.6667 41.6666C10.7463 41.6666 10 42.4128 10 43.3332C10 44.2537 10.7463 44.9999 11.6667 44.9999Z" fill="white"/>
<path d="M61.3333 48.3333H11.6667C10.7463 48.3333 10 49.0795 10 49.9999C10 50.9203 10.7463 51.6666 11.6667 51.6666H61.3333C62.2537 51.6666 63 50.9203 63 49.9999C63 49.0795 62.2537 48.3333 61.3333 48.3333Z" fill="white"/>
<path d="M40.3333 66H11.6667C10.7463 66 10 66.7463 10 67.6667C10 68.5871 10.7463 69.3333 11.6667 69.3333H40.3333C41.2537 69.3333 42 68.5871 42 67.6667C42 66.7463 41.2537 66 40.3333 66Z" fill="white"/>
<path d="M18.3333 55H11.6667C10.7463 55 10 55.7463 10 56.6667C10 57.5871 10.7463 58.3333 11.6667 58.3333H18.3333C19.2537 58.3333 20 57.5871 20 56.6667C20 55.7463 19.2537 55 18.3333 55Z" fill="white"/>
<path d="M27.3333 72.6667H11.6667C10.7463 72.6667 10 73.413 10 74.3334C10 75.2538 10.7463 76.0001 11.6667 76.0001H27.3333C28.2537 76.0001 29 75.2538 29 74.3334C29 73.413 28.2537 72.6667 27.3333 72.6667Z" fill="white"/>
<path d="M35.0002 55H25.0002C24.0798 55 23.3335 55.7463 23.3335 56.6667C23.3335 57.5871 24.0798 58.3333 25.0002 58.3333H35.0002C35.9206 58.3333 36.6668 57.5871 36.6668 56.6667C36.6668 55.7463 35.9206 55 35.0002 55Z" fill="white"/>
<path d="M12.1552 29.5116C12.8062 30.1618 13.8609 30.1618 14.5119 29.5116L29.5119 14.5116C30.1434 13.8573 30.1345 12.8181 29.4916 12.1752C28.8487 11.5322 27.8095 11.5233 27.1552 12.1548L12.1552 27.1548C11.5049 27.8058 11.5049 28.8605 12.1552 29.5116Z" fill="white"/>
<path d="M21.6665 26.6667C21.6665 29.428 23.9053 31.6667 26.6665 31.6667C29.4277 31.6667 31.6665 29.428 31.6665 26.6667C31.6665 23.9055 29.4277 21.6667 26.6665 21.6667C23.9053 21.6667 21.6665 23.9055 21.6665 26.6667ZM28.3332 26.6667C28.3332 27.5872 27.5869 28.3334 26.6665 28.3334C25.7461 28.3334 24.9998 27.5872 24.9998 26.6667C24.9998 25.7463 25.7461 25.0001 26.6665 25.0001C27.5869 25.0001 28.3332 25.7463 28.3332 26.6667Z" fill="white"/>
<path d="M15 20C17.7612 20 20 17.7612 20 15C20 12.2388 17.7612 10 15 10C12.2388 10 10 12.2388 10 15C10 17.7612 12.2388 20 15 20ZM15 13.3333C15.9204 13.3333 16.6667 14.0796 16.6667 15C16.6667 15.9204 15.9204 16.6667 15 16.6667C14.0796 16.6667 13.3333 15.9204 13.3333 15C13.3333 14.0796 14.0796 13.3333 15 13.3333Z" fill="white"/>
<path d="M69.5622 61.5C69.1246 61.5 68.9059 61.8281 68.9059 62.2656L69.6716 83.7031C69.6716 84.0312 69.9997 84.25 70.3279 84.25H72.6251C72.9532 84.25 73.2814 84.0312 73.2814 83.7031L74.0471 62.2656C74.0471 61.8281 73.8284 61.5 73.3908 61.5H69.5622ZM71.5312 86.4375C69.781 86.4375 68.4683 87.8594 68.4683 89.5C68.4683 91.25 69.781 92.5625 71.5312 92.5625C73.172 92.5625 74.5941 91.25 74.5941 89.5C74.5941 87.8594 73.172 86.4375 71.5312 86.4375ZM102.269 92.125L76.0161 46.625C74.0471 43.125 68.9059 43.125 66.9369 46.625L40.6835 92.125C38.7145 95.625 41.2305 100 45.2779 100H97.7845C101.722 100 104.348 95.625 102.269 92.125ZM97.7845 96.5H45.2779C43.8558 96.5 43.0901 95.0781 43.7464 93.875L69.9997 48.375C70.6561 47.2812 72.2969 47.2812 72.9532 48.375L99.2066 93.875C99.9723 95.0781 99.0972 96.5 97.7845 96.5Z" fill="white"/>
<path fill-rule="evenodd" clip-rule="evenodd" d="M73.3333 21.6667V45H70V23.3333H55C52.2388 23.3333 50 21.0946 50 18.3333V3.33333H8.33333C5.5721 3.33333 3.33333 5.5721 3.33333 8.33333V85C3.33333 87.7612 5.5721 90 8.33333 90H43V93.3333H8.33333C3.73291 93.3276 0.00569662 89.6004 0 85V8.33333C0.00569662 3.73291 3.73291 0.00569662 8.33333 0H51.6667C51.6834 0 51.699 0.0042782 51.7137 0.00829925C51.7297 0.0126889 51.7446 0.0167721 51.7586 0.0146484C51.9084 0.0236002 52.0565 0.0528971 52.1981 0.101725C52.2135 0.107013 52.2285 0.111947 52.2433 0.116819C52.2787 0.128441 52.3131 0.139713 52.3486 0.154622C52.5301 0.236002 52.6961 0.348307 52.8385 0.488281L72.8385 20.4883C72.9777 20.6299 73.0908 20.7951 73.1714 20.9766C73.1874 21.0118 73.1985 21.0467 73.2098 21.0823C73.2152 21.0992 73.2207 21.1163 73.2267 21.1336C73.2747 21.2712 73.3032 21.416 73.3114 21.5617C73.3128 21.5784 73.3175 21.5941 73.3222 21.6097C73.3278 21.6283 73.3333 21.6467 73.3333 21.6667ZM55 20H67.6432L53.3333 5.6901V18.3333C53.3333 19.2537 54.0796 20 55 20Z" fill="white"/>
</svg>
