<svg width="72" height="72" viewBox="0 0 72 72" fill="none" xmlns="http://www.w3.org/2000/svg">
<g clip-path="url(#clip0)">
<path d="M49.5575 36.5625C48.9354 36.5625 48.345 36.2879 47.9441 35.8121C47.5433 35.3363 47.373 34.7078 47.4786 34.0948L51.5997 10.1886C51.7742 9.17677 52.6518 8.4375 53.6785 8.4375H65.5312C66.6962 8.4375 67.6406 9.38194 67.6406 10.5469V18.4794C67.6406 28.4504 59.5285 36.5625 49.5575 36.5625ZM55.4555 12.6562L52.1018 32.1097C58.5358 30.9116 63.4219 25.2554 63.4219 18.4794V12.6562H55.4555Z" fill="#F7AA00"/>
<path d="M22.4425 36.5625C12.4715 36.5625 4.35938 28.4504 4.35938 18.4794V10.5469C4.35938 9.38194 5.30381 8.4375 6.46875 8.4375H18.3215C19.3482 8.4375 20.2258 9.17677 20.4002 10.1886L24.5212 34.0948C24.6268 34.7079 24.4565 35.3364 24.0557 35.8121C23.655 36.2879 23.0646 36.5625 22.4425 36.5625ZM8.57812 12.6562V18.4794C8.57812 25.2554 13.4641 30.9116 19.8982 32.1097L16.5445 12.6562H8.57812Z" fill="#FFD228"/>
<path d="M44.4375 55.125H27.5625C26.7093 55.125 25.9401 54.611 25.6137 53.8228C25.2873 53.0346 25.4677 52.1273 26.071 51.524C28.393 49.202 29.6719 46.1146 29.6719 42.8307V40.9264C29.6719 39.7615 30.6163 38.817 31.7812 38.817H40.2187C41.3837 38.817 42.3281 39.7615 42.3281 40.9264V42.8307C42.3281 46.1148 43.6069 49.202 45.9289 51.524C46.5322 52.1273 46.7127 53.0346 46.3863 53.8228C46.0597 54.611 45.2907 55.125 44.4375 55.125Z" fill="#FFD228"/>
<path d="M42.3281 42.8307V40.9264C42.3281 39.7615 41.3837 38.817 40.2188 38.817H36V55.125H44.4375C45.2907 55.125 46.0598 54.611 46.3863 53.8228C46.7127 53.0346 46.5323 52.1273 45.929 51.524C43.607 49.202 42.3281 46.1148 42.3281 42.8307V42.8307Z" fill="#F7AA00"/>
<path d="M35.9999 43.5938C31.2493 43.5938 26.7183 41.8109 23.2414 38.5736C19.7646 35.3362 17.6634 30.9438 17.3249 26.2053L15.6145 2.2597C15.5727 1.67569 15.7757 1.10053 16.1748 0.671906C16.5739 0.243281 17.1331 0 17.7187 0H54.2812C54.8667 0 55.426 0.243422 55.825 0.671906C56.224 1.10039 56.427 1.67555 56.3852 2.2597L54.6748 26.2053C54.3363 30.9438 52.2351 35.3364 48.7584 38.5736C45.2816 41.8109 40.7505 43.5938 35.9999 43.5938V43.5938Z" fill="#FFEB3C"/>
<path d="M48.7585 38.5736C52.2353 35.3362 54.3364 30.9438 54.6749 26.2053L56.3853 2.2597C56.427 1.67569 56.2241 1.10053 55.825 0.671906C55.4261 0.243422 54.8668 0 54.2812 0H36V43.5938C40.7506 43.5938 45.2817 41.8109 48.7585 38.5736Z" fill="#FFD228"/>
<path d="M50.0625 63.5625H21.9375C20.7726 63.5625 19.8281 62.6181 19.8281 61.4531V57.2344C19.8281 53.745 22.6669 50.9062 26.1562 50.9062H45.8438C49.3331 50.9062 52.1719 53.745 52.1719 57.2344V61.4531C52.1719 62.6181 51.2274 63.5625 50.0625 63.5625Z" fill="#FFEB3C"/>
<path d="M45.8438 50.9062H36V63.5625H50.0625C51.2274 63.5625 52.1719 62.6181 52.1719 61.4531V57.2344C52.1719 53.745 49.3331 50.9062 45.8438 50.9062Z" fill="#FFD228"/>
<path d="M55.6875 72H16.3125C15.1476 72 14.2031 71.0556 14.2031 69.8906V65.6719C14.2031 62.1825 17.0419 59.3438 20.5312 59.3438H51.4688C54.9581 59.3438 57.7969 62.1825 57.7969 65.6719V69.8906C57.7969 71.0556 56.8524 72 55.6875 72Z" fill="#FFD228"/>
<path d="M57.7969 69.8906V65.6719C57.7969 62.1825 54.9581 59.3438 51.4688 59.3438H36V72H55.6875C56.8524 72 57.7969 71.0556 57.7969 69.8906Z" fill="#F7AA00"/>
<path d="M59.9062 72H12.0938C10.9288 72 9.98438 71.0556 9.98438 69.8906C9.98438 68.7257 10.9288 67.7812 12.0938 67.7812H59.9062C61.0712 67.7812 62.0156 68.7257 62.0156 69.8906C62.0156 71.0556 61.0712 72 59.9062 72Z" fill="#FFEB3C"/>
<path d="M62.0156 69.8906C62.0156 68.7257 61.0712 67.7812 59.9062 67.7812H36V72H59.9062C61.0712 72 62.0156 71.0556 62.0156 69.8906Z" fill="#FFD228"/>
<path d="M57.0938 4.21875H14.9062C13.7413 4.21875 12.7969 3.27431 12.7969 2.10938C12.7969 0.944437 13.7413 0 14.9062 0H57.0938C58.2587 0 59.2031 0.944437 59.2031 2.10938C59.2031 3.27431 58.2587 4.21875 57.0938 4.21875Z" fill="#FFD228"/>
<path d="M57.0938 4.21875C58.2587 4.21875 59.2031 3.27431 59.2031 2.10938C59.2031 0.944437 58.2587 0 57.0938 0H36V4.21875H57.0938Z" fill="#F7AA00"/>
<path d="M36.5477 33.0469C35.3827 33.0469 34.4383 32.1024 34.4383 30.9375V14.7656H32.6401C31.4752 14.7656 30.5308 13.8212 30.5308 12.6562C30.5308 11.4913 31.4752 10.5469 32.6401 10.5469H36.5477C37.7126 10.5469 38.6571 11.4913 38.6571 12.6562V30.9375C38.6571 32.1024 37.7126 33.0469 36.5477 33.0469Z" fill="#FFD228"/>
<path d="M36.5476 10.5469H36V32.9725C36.1749 33.0195 36.3578 33.0469 36.5476 33.0469C37.7125 33.0469 38.657 32.1024 38.657 30.9375V12.6562C38.657 11.4913 37.7125 10.5469 36.5476 10.5469Z" fill="#F7AA00"/>
</g>
<defs>
<clipPath id="clip0">
<rect width="72" height="72" fill="white"/>
</clipPath>
</defs>
</svg>
