<?xml version="1.0" encoding="iso-8859-1"?>
<!-- Generator: Adobe Illustrator 19.0.0, SVG Export Plug-In . SVG Version: 6.00 Build 0)  -->
<svg version="1.1" id="Capa_1" xmlns="http://www.w3.org/2000/svg" xmlns:xlink="http://www.w3.org/1999/xlink" x="0px" y="0px"
	 viewBox="0 0 512 512" style="enable-background:new 0 0 512 512;" xml:space="preserve">
<g>
	<g>
		<path d="M130.945,442.354c-5.837-5.843-13.598-9.06-21.854-9.059H43.979c-17.036,0-30.898,13.871-30.898,30.922
			c-0.001,8.258,3.211,16.023,9.046,21.865c5.837,5.842,13.597,9.059,21.854,9.059h65.113c17.037,0,30.9-13.871,30.9-30.922
			C139.993,455.96,136.78,448.194,130.945,442.354z M69.037,480.14H43.981c-4.246,0-8.239-1.656-11.241-4.661
			c-3.005-3.007-4.659-7.006-4.658-11.261c0-8.78,7.132-15.922,15.898-15.922h25.058V480.14z M109.094,480.14H84.038v-31.845h25.055
			c4.245-0.001,8.237,1.655,11.24,4.66c3.004,3.008,4.659,7.007,4.659,11.263C124.992,472.998,117.861,480.14,109.094,480.14z"/>
	</g>
</g>
<g>
	<g>
		<path d="M382.71,388.503c4.143,0,7.5-3.358,7.5-7.5v-48.513c0-16.941-13.771-30.724-30.7-30.724h-15.227v-17.128h18.494
			c6.893,0,12.5-5.607,12.5-12.5v-40.729c0-6.893-5.607-12.5-12.5-12.5H212.293c-6.893,0-12.5,5.607-12.5,12.5v40.729
			c0,6.893,5.607,12.5,12.5,12.5h18.495v17.128h-15.227c-16.93,0-30.702,13.782-30.702,30.724v158.669
			c0,7.337,5.967,13.306,13.301,13.306h178.751c7.333,0,13.299-5.969,13.299-13.306v-71.155c0-4.142-3.357-7.5-7.5-7.5
			c-4.143,0-7.5,3.358-7.5,7.5v14.5h-30.886c5.324-9.446,8.377-20.337,8.377-31.933c0-11.597-3.054-22.488-8.377-31.934h30.886
			v10.365C375.21,385.145,378.567,388.503,382.71,388.503z M214.794,269.637v-35.729h145.484v35.729h-39.268
			c-4.143,0-7.5,3.358-7.5,7.5s3.357,7.5,7.5,7.5h8.273v17.128h-83.494v-17.128h35.22c4.143,0,7.5-3.358,7.5-7.5s-3.357-7.5-7.5-7.5
			H214.794z M375.211,449.506v39.959h-0.001H199.86v-39.959h42.494c11.725,11.311,27.65,18.289,45.182,18.289
			c17.531,0,33.457-6.978,45.182-18.289H375.211z M230.748,434.505H199.86v-63.867h30.888c-5.323,9.446-8.377,20.337-8.377,31.934
			C222.371,414.169,225.424,425.059,230.748,434.505z M237.37,402.572c0-27.693,22.505-50.222,50.165-50.222
			s50.165,22.53,50.165,50.222c0,27.693-22.504,50.222-50.165,50.222C259.875,452.795,237.37,430.265,237.37,402.572z
			 M332.717,355.638c-11.725-11.311-27.649-18.289-45.181-18.289c-17.531,0-33.456,6.977-45.181,18.289h-42.495v-23.149
			c0-8.67,7.044-15.723,15.701-15.723h143.95c8.656,0,15.699,7.053,15.699,15.723v23.149H332.717z"/>
	</g>
</g>
<g>
	<g>
		<path d="M312.921,383.46H262.15c-4.143,0-7.5,3.358-7.5,7.5s3.357,7.5,7.5,7.5h50.771c4.143,0,7.5-3.358,7.5-7.5
			S317.064,383.46,312.921,383.46z"/>
	</g>
</g>
<g>
	<g>
		<path d="M305.454,407.844h-35.836c-4.143,0-7.5,3.358-7.5,7.5c0,4.142,3.357,7.5,7.5,7.5h35.837c4.143,0,7.5-3.358,7.5-7.5
			C312.955,411.202,309.597,407.844,305.454,407.844z"/>
	</g>
</g>
<g>
	<g>
		<path d="M139.772,361.397h-10.631c-15.597,0-28.286,12.697-28.286,28.305s12.688,28.305,28.286,28.305h10.631
			c15.596,0,28.284-12.697,28.284-28.305C168.056,374.095,155.368,361.397,139.772,361.397z M139.772,403.006h-10.631
			c-7.325,0-13.285-5.968-13.285-13.304c0-7.336,5.96-13.304,13.285-13.304h10.631c7.324,0,13.283,5.968,13.283,13.304
			C153.056,397.038,147.097,403.006,139.772,403.006z"/>
	</g>
</g>
<g>
	<g>
		<path d="M91.523,323.737c-5.342-5.347-12.446-8.293-20.002-8.293c-7.556,0-14.659,2.945-20.004,8.293l-7.517,7.525
			c-11.025,11.034-11.027,28.99-0.002,40.024c5.343,5.348,12.446,8.293,20.003,8.293s14.659-2.945,20.001-8.293l7.52-7.526
			C102.546,352.726,102.546,334.77,91.523,323.737z M80.91,353.159l-7.521,7.527c-2.508,2.511-5.842,3.894-9.388,3.894
			c-3.547,0-6.882-1.383-9.391-3.895c-5.184-5.188-5.184-13.631,0.003-18.821l7.517-7.526c2.509-2.511,5.844-3.894,9.391-3.894
			c3.546,0,6.88,1.383,9.389,3.894C86.094,339.528,86.094,347.971,80.91,353.159z"/>
	</g>
</g>
<g>
	<g>
		<path d="M502.966,179.802c-5.836-5.842-13.597-9.06-21.854-9.06c-8.255,0-16.016,3.218-21.852,9.06l-46.04,46.087
			c-12.045,12.055-12.045,31.671-0.001,43.726c5.836,5.842,13.596,9.06,21.852,9.06c8.256,0,16.016-3.218,21.853-9.06l46.042-46.087
			C515.012,211.473,515.012,191.857,502.966,179.802z M446.313,259.015c-3.003,3.005-6.994,4.661-11.24,4.661
			c-4.245,0-8.235-1.655-11.238-4.661c-6.204-6.209-6.204-16.313,0-22.523l17.714-17.732l22.491,22.513L446.313,259.015z
			 M492.355,212.927l-17.714,17.732l-22.491-22.513l17.726-17.743c3.002-3.005,6.993-4.661,11.238-4.661
			c4.246,0,8.238,1.655,11.241,4.662C498.559,196.614,498.559,206.717,492.355,212.927z"/>
	</g>
</g>
<g>
	<g>
		<path d="M416.662,128.58h-65.117c-17.035,0-30.896,13.872-30.896,30.923s13.862,30.922,30.9,30.922h65.113
			c17.038,0,30.901-13.871,30.901-30.922C447.563,142.451,433.703,128.58,416.662,128.58z M376.607,175.424h-25.058
			c-8.767,0-15.898-7.143-15.898-15.922s7.131-15.922,15.898-15.922h25.058V175.424z M416.662,175.423h-25.056v-31.845h25.06v0.001
			c8.766,0,15.896,7.143,15.896,15.922C432.562,168.281,425.429,175.423,416.662,175.423z"/>
	</g>
</g>
<g>
	<g>
		<path d="M475.517,304.439c-7.441-7.449-17.336-11.551-27.862-11.551c-10.525,0-20.422,4.102-27.864,11.551
			c-15.358,15.373-15.358,40.387,0,55.762c7.442,7.449,17.338,11.552,27.864,11.552c10.525,0,20.421-4.103,27.862-11.552
			C490.874,344.827,490.874,319.813,475.517,304.439z M447.655,356.752c-6.517,0-12.644-2.54-17.253-7.153
			c-7.666-7.674-9.146-19.222-4.463-28.404l32.842,32.875C455.378,355.82,451.589,356.752,447.655,356.752z M469.368,343.444
			l-32.842-32.875c3.402-1.75,7.193-2.682,11.128-2.682c6.516,0,12.642,2.54,17.249,7.152
			C472.571,322.715,474.051,334.262,469.368,343.444z"/>
	</g>
</g>
<g>
	<g>
		<path d="M325.29,59.952l-48.708-48.758c-2.358-2.359-5.497-3.658-8.84-3.658s-6.481,1.299-8.84,3.658l-11.472,11.482
			c-4.871,4.874-4.871,12.804-0.001,17.677l9.523,9.533l-23.569,23.592l-25.92-25.946c-2.357-2.358-5.496-3.657-8.839-3.657
			c-3.344,0-6.483,1.3-8.839,3.659l-17.607,17.625c-4.868,4.873-4.868,12.802,0,17.676l8.395,8.404L63.968,207.961
			c-2.434,2.437-3.651,5.637-3.651,8.838s1.217,6.401,3.651,8.838l2.244,2.247l-8.397,8.406c-4.867,4.873-4.867,12.802,0.001,17.677
			l7.166,7.173L2.195,323.988c-2.928,2.931-2.926,7.679,0.005,10.607c1.465,1.462,3.383,2.194,5.301,2.194
			c1.921,0,3.841-0.733,5.306-2.199l62.777-62.839l7.155,7.161c2.356,2.359,5.496,3.658,8.839,3.658
			c3.344,0,6.482-1.299,8.839-3.658l8.387-8.395l2.234,2.236c2.356,2.359,5.495,3.658,8.839,3.658c3.343,0,6.481-1.299,8.84-3.658
			l116.594-116.709l8.385,8.393c2.356,2.36,5.496,3.66,8.84,3.66c3.343,0,6.481-1.299,8.84-3.658l17.607-17.625
			c4.871-4.874,4.871-12.804,0.001-17.677l-25.929-25.955l23.568-23.593l9.514,9.523c2.357,2.358,5.496,3.657,8.839,3.657
			s6.482-1.299,8.839-3.658l11.473-11.484C330.161,72.754,330.16,64.824,325.29,59.952z M75.584,250.526l-5.394-5.399l6.624-6.631
			l5.395,5.399L75.584,250.526z M91.577,266.537l-5.393-5.397l6.625-6.631l5.392,5.398L91.577,266.537z M182.904,197.291
			l-7.095-7.095c-2.93-2.929-7.678-2.929-10.607,0c-2.929,2.929-2.929,7.678,0,10.606l7.101,7.1l-8.639,8.647l-7.104-7.104
			c-2.93-2.929-7.678-2.929-10.607,0c-2.929,2.929-2.929,7.678,0,10.606l7.11,7.11l-8.639,8.647l-7.114-7.114
			c-2.93-2.929-7.678-2.929-10.607,0s-2.929,7.678,0,10.606l7.119,7.12l-13.941,13.955l-43.536-43.58l80.455-80.533l43.536,43.58
			L182.904,197.291z M276.611,137.975l-14.073,14.087l-18.349-18.366c-2.927-2.93-7.676-2.933-10.606-0.005
			c-2.931,2.927-2.933,7.676-0.005,10.606l1.133,1.133l-23.775,23.798l-43.536-43.58l23.774-23.797l15.427,15.442
			c2.927,2.93,7.676,2.933,10.606,0.005c2.931-2.928,2.933-7.676,0.005-10.607L184.55,73.997l14.074-14.087L276.611,137.975z
			 M252.456,92.57l-8.471-8.479l23.569-23.592l8.47,8.479L252.456,92.57z M304.978,76.737l-45.176-45.222l7.939-7.946l45.175,45.222
			L304.978,76.737z"/>
	</g>
</g>
<g>
</g>
<g>
</g>
<g>
</g>
<g>
</g>
<g>
</g>
<g>
</g>
<g>
</g>
<g>
</g>
<g>
</g>
<g>
</g>
<g>
</g>
<g>
</g>
<g>
</g>
<g>
</g>
<g>
</g>
</svg>
