<?xml version="1.0"?>
<svg xmlns="http://www.w3.org/2000/svg" viewBox="0 0 512 512" width="512" height="512"><g id="Out_line" data-name="Out line"><path d="M488,304H456V238.439l20.85449,8.91651A7.99959,7.99959,0,0,0,488,240a90.29412,90.29412,0,0,0-36.97266-72.93677L446.458,137.36328A83.811,83.811,0,0,0,398.0918,73.90479L375.35352,20.84863A8.00075,8.00075,0,0,0,368,16H296V32h16v7.01562l-7.76074,31.04395A8,8,0,0,0,312,80h8V96a7.99556,7.99556,0,0,0,7.39624,7.96948l-10.28784,25.719a39.99411,39.99411,0,0,0-2.73535,11.76831l-23.36328,28.0354-73.23731,33.80029-6.4895-2.59521-40.09717-20.04859,2.16187-5.94507,40.91406,9.105a7.9959,7.9959,0,0,0,6.85937-1.66308l48-40q.2798-.23145.53614-.48828l20-20a24.97109,24.97109,0,0,0-35.31446-35.31446L248,92.68579V88a8,8,0,0,0-16,0v20.00024L207.72852,126.2041l-35.30811-23.53857A7.99039,7.99039,0,0,0,176,96V80h8a8,8,0,0,0,7.76074-9.94043L184,39.01562V32h16V16H128a8.00075,8.00075,0,0,0-7.35352,4.84863L97.80078,74.15527,74.01172,86.0498A40.17211,40.17211,0,0,0,52.585,129.19922l5.71069,30.458A97.24929,97.24929,0,0,0,16,240a8.00009,8.00009,0,0,0,11.57812,7.15527L70.6626,225.613l.79785,4.25464L51.91992,254.294a40.12648,40.12648,0,0,0-7.35547,35.51171L63.06055,357.626,42.34277,378.34277a8.00868,8.00868,0,0,0-2.29394,4.77344l-8,72A7.9544,7.9544,0,0,0,32.002,456H32v32a8.00039,8.00039,0,0,0,8,8H176a7.99991,7.99991,0,0,0,3.96875-14.94629l-50.738-28.99316,22.53-90.12012A7.97509,7.97509,0,0,0,152,360V233.4104l.76172-2.095L188.751,247.31055c.04736.021.0957.03466.14331.05468.0459.01954.08862.04395.135.0625l24.77441,9.90918a25.45157,25.45157,0,0,0,9.47168,1.82129,26.13427,26.13427,0,0,0,20.29883-9.70117l79.57715-34.10351a8.00817,8.00817,0,0,0,2.50586-1.69629l8.18359-8.1836,10.0708,27.69336-7.896,126.334a8.01625,8.01625,0,0,0,.22364,2.43945l22.53,90.12012-50.738,28.99316A7.99991,7.99991,0,0,0,312,496H456a8,8,0,0,0,7.76074-9.94043L456,455.0166V408h32a8.00039,8.00039,0,0,0,8-8V312A8.00039,8.00039,0,0,0,488,304Zm-64,0V288h16v16Zm-66.39648-80-25.91114-71.25391a23.9782,23.9782,0,0,1,.27149-17.11621l8.87036-22.17553,18.666,4.6665a112.30923,112.30923,0,0,0,42.20557,93.00708L402.876,224Zm113.333,3.42383L456,221.03857V200a8.06492,8.06492,0,0,0-.09277-1.2168l-.94947-6.17212A74.263,74.263,0,0,1,470.93652,227.42383Zm-40.293-87.627L440,200.61133V272H423.30566l-7.33886-80.72461q-.02637-.2959-.0752-.59082l-8-48-15.7832,2.63086,6.854,41.12231A96.27372,96.27372,0,0,1,375.752,114.99756L394.54614,89.939A67.75894,67.75894,0,0,1,430.64355,139.79688ZM322.24609,64l5.51465-22.05957A7.97509,7.97509,0,0,0,328,40V32h34.72461L382.8252,78.90039,364.78711,102.9502,351.64746,99.666l14.00977-14.00879a8.00053,8.00053,0,1,0-11.31446-11.31446L340.68652,88H336V72a8.00039,8.00039,0,0,0-8-8ZM149.07422,169.59277l-15.79053-18.94824a110.98948,110.98948,0,0,0,3.219-32.52441l18.66308-4.66577,8.87036,22.17553a23.97565,23.97565,0,0,1,.27149,17.11524l-7.52808,20.70019Zm116.583-71.93554a8.97,8.97,0,0,1,12.68554,12.68554L264.00049,124.686,251.31445,112ZM212.7998,142.40039,239.249,122.56348l12.89942,12.89941-38.249,31.874-35.03711-7.79712.48243-1.3269a39.95312,39.95312,0,0,0-.45313-28.52441l-1.898-4.74488,26.56885,17.71265A8.002,8.002,0,0,0,212.7998,142.40039ZM133.27539,32H168v8a7.97509,7.97509,0,0,0,.23926,1.94043L173.75391,64H168a8.00039,8.00039,0,0,0-8,8V88h-4.68652L141.65723,74.34277a8.00053,8.00053,0,0,0-11.31446,11.31446L144.35254,99.666l-13.13965,3.28418L113.1748,78.90039ZM81.168,100.36035l20.438-10.219,18.65332,24.87134a95.53215,95.53215,0,0,1-.27393,19.67382l-9.83984-11.80761-12.291,10.24218,40,48a7.98557,7.98557,0,0,0,2.56739,2.03418l56.84472,28.42285-9.00342,18.0066L124.60645,201.293,72.6377,149.32324,68.31152,126.25A24.10117,24.10117,0,0,1,81.168,100.36035ZM33.11816,226.49707a81.26625,81.26625,0,0,1,35.29493-54.37988l2.63867-1.751,21.19067,21.19067a95.35138,95.35138,0,0,1-24.61548,17.68531ZM48,480V464h5.57812l24,16Zm43.42139-64.76172L96,456.44434V473.052L66.95361,453.68774ZM112,480V464h5.87524L145.875,480Zm1.75391-32h-2.59375l-5.92188-53.2998c-.03857-.34522-.05835-.69605-.08179-1.04566L118.749,372.29492A7.99418,7.99418,0,0,0,120,368V296H104v69.66992L51.6084,448H48.93848l6.70312-60.32715,22.01563-22.01562a8.00032,8.00032,0,0,0,2.06054-7.76172L60,285.59668a24.07672,24.07672,0,0,1,4.41406-21.30762L83.84546,240H136V359.01465ZM86.63965,224l-1.22437-6.52881a110.83615,110.83615,0,0,0,18.13794-14.60351l10.78955,10.78955a7.9924,7.9924,0,0,0,2.40821,1.65332L136.30225,224ZM232.18359,237.752a9.88114,9.88114,0,0,1-12.43847,4.7295L203.044,235.80078l8.81982-17.6394,15.18018,6.071a9.8273,9.8273,0,0,1,5.13964,13.51953Zm83.249-36.498-66.47657,28.48877A25.68868,25.68868,0,0,0,237.5708,211.7771l61.78174-28.51343a8.00339,8.00339,0,0,0,2.793-2.14258L318.04663,162.04l9.76,26.83911ZM359.51562,240h44.815L408,280.35938V304H376a8.00039,8.00039,0,0,0-8,8v88a8.00039,8.00039,0,0,0,8,8h11.45605l-9.74121,40h-3.46875l-22.18457-88.73828ZM392,456.95825l9.81372-40.29809,19.69946,36.7163L392,473.052ZM342.125,480l27.99976-16H376v16Zm68.29688,0,24-16h7.33227l3.99976,16ZM440,448h-3.21387L415.3252,408H440Zm40-56H384V352h40v24h16V352h40Zm0-56H384V320h96Z"/></g></svg>
