<svg width="56" height="56" viewBox="0 0 56 56" fill="none" xmlns="http://www.w3.org/2000/svg">
<path d="M28 56C43.464 56 56 43.464 56 28C56 12.536 43.464 0 28 0C12.536 0 0 12.536 0 28C0 43.464 12.536 56 28 56Z" fill="#FFCA28"/>
<path d="M43.7151 22.785C42.7491 22.785 41.9651 22.001 41.9651 21.035C41.9651 19.1065 40.3971 17.535 38.4651 17.535C36.5331 17.535 34.9651 19.1065 34.9651 21.035C34.9651 22.001 34.1811 22.785 33.2151 22.785C32.2491 22.785 31.4651 22.001 31.4651 21.035C31.4651 17.1745 34.6046 14.035 38.4651 14.035C42.3256 14.035 45.4651 17.1745 45.4651 21.035C45.4651 22.0045 44.6811 22.785 43.7151 22.785Z" fill="#6D4C41"/>
<path d="M22.7151 22.785C21.7491 22.785 20.9651 22.001 20.9651 21.035C20.9651 19.1065 19.3936 17.535 17.4651 17.535C15.5366 17.535 13.9651 19.1065 13.9651 21.035C13.9651 22.001 13.1811 22.785 12.2151 22.785C11.2491 22.785 10.4651 22.001 10.4651 21.035C10.4651 17.1745 13.6046 14.035 17.4651 14.035C21.3256 14.035 24.4651 17.1745 24.4651 21.035C24.4651 22.0045 23.6811 22.785 22.7151 22.785Z" fill="#6D4C41"/>
<path d="M47.8731 32.2315C47.5406 31.794 47.0261 31.535 46.4801 31.535H9.45009C8.90059 31.535 8.38609 31.7905 8.05709 32.228C7.72109 32.669 7.61609 33.2325 7.76309 33.761C10.2936 42.7525 18.6026 49.035 27.9616 49.035C37.3206 49.035 45.6296 42.7525 48.1601 33.761C48.3106 33.2325 48.2056 32.669 47.8731 32.2315Z" fill="#FAFAFA"/>
</svg>
