<svg width="141" height="141" viewBox="0 0 141 141" fill="none" xmlns="http://www.w3.org/2000/svg">
<path d="M129.25 42.3H103.4V30.55C103.4 30.4984 103.374 30.4536 103.369 30.402C103.358 30.1966 103.317 29.9923 103.25 29.7984C103.223 29.7227 103.205 29.6504 103.172 29.577C103.058 29.3211 102.899 29.0881 102.702 28.8885L74.5023 0.688477C74.3015 0.491113 74.0675 0.332764 73.8116 0.218018C73.7404 0.188184 73.6727 0.168677 73.5993 0.143433C73.3996 0.0745849 73.1908 0.0332763 72.9797 0.0206543C72.9418 0.0263916 72.8993 0 72.85 0H11.75C5.2634 0.00803224 0.00803224 5.2634 0 11.75V119.85C0.00803224 126.337 5.2634 131.592 11.75 131.6H61.3352C62.4597 137.068 67.2687 140.993 72.85 141H129.25C135.737 140.992 140.992 135.737 141 129.25V54.05C140.992 47.5634 135.737 42.308 129.25 42.3ZM95.3769 28.2H77.55C76.2522 28.2 75.2 27.1478 75.2 25.85V8.02305L95.3769 28.2ZM4.7 119.85V11.75C4.7 7.85666 7.85666 4.7 11.75 4.7H70.5V25.85C70.5 29.7433 73.6567 32.9 77.55 32.9H98.7V42.3H72.85C66.3634 42.308 61.108 47.5634 61.1 54.05V126.9H11.75C7.85666 126.9 4.7 123.743 4.7 119.85ZM136.3 129.25C136.3 133.143 133.143 136.3 129.25 136.3H72.85C68.9567 136.3 65.8 133.143 65.8 129.25V54.05C65.8 50.1567 68.9567 47 72.85 47H129.25C133.143 47 136.3 50.1567 136.3 54.05V129.25Z" fill="#90A8BE"/>
<path d="M119.85 51.7H82.25C75.7634 51.708 70.508 56.9634 70.5 63.45V72.85C70.508 79.3365 75.7634 84.5919 82.25 84.6H119.85C126.337 84.5919 131.592 79.3365 131.6 72.85V63.45C131.592 56.9634 126.337 51.708 119.85 51.7ZM126.9 72.85C126.9 76.7433 123.743 79.9 119.85 79.9H82.25C78.3567 79.9 75.2 76.7433 75.2 72.85V63.45C75.2 59.5566 78.3567 56.4 82.25 56.4H119.85C123.743 56.4 126.9 59.5566 126.9 63.45V72.85Z" fill="#90A8BE"/>
<path d="M79.9 89.3C74.7089 89.3 70.5 93.5089 70.5 98.7C70.5 103.891 74.7089 108.1 79.9 108.1C85.0911 108.1 89.3 103.891 89.3 98.7C89.3 93.5089 85.0911 89.3 79.9 89.3ZM79.9 103.4C77.3044 103.4 75.2 101.296 75.2 98.7C75.2 96.1045 77.3044 94 79.9 94C82.4956 94 84.6 96.1045 84.6 98.7C84.6 101.296 82.4956 103.4 79.9 103.4Z" fill="#90A8BE"/>
<path d="M101.05 89.3C95.8588 89.3 91.6499 93.5089 91.6499 98.7C91.6499 103.891 95.8588 108.1 101.05 108.1C106.241 108.1 110.45 103.891 110.45 98.7C110.45 93.5089 106.241 89.3 101.05 89.3ZM101.05 103.4C98.4544 103.4 96.3499 101.296 96.3499 98.7C96.3499 96.1045 98.4544 94 101.05 94C103.645 94 105.75 96.1045 105.75 98.7C105.75 101.296 103.645 103.4 101.05 103.4Z" fill="#90A8BE"/>
<path d="M79.9 112.8C74.7089 112.8 70.5 117.009 70.5 122.2C70.5 127.391 74.7089 131.6 79.9 131.6C85.0911 131.6 89.3 127.391 89.3 122.2C89.3 117.009 85.0911 112.8 79.9 112.8ZM79.9 126.9C77.3044 126.9 75.2 124.796 75.2 122.2C75.2 119.604 77.3044 117.5 79.9 117.5C82.4956 117.5 84.6 119.604 84.6 122.2C84.6 124.796 82.4956 126.9 79.9 126.9Z" fill="#90A8BE"/>
<path d="M101.05 112.8C95.8588 112.8 91.6499 117.009 91.6499 122.2C91.6499 127.391 95.8588 131.6 101.05 131.6C106.241 131.6 110.45 127.391 110.45 122.2C110.45 117.009 106.241 112.8 101.05 112.8ZM101.05 126.9C98.4544 126.9 96.3499 124.796 96.3499 122.2C96.3499 119.604 98.4544 117.5 101.05 117.5C103.645 117.5 105.75 119.604 105.75 122.2C105.75 124.796 103.645 126.9 101.05 126.9Z" fill="#90A8BE"/>
<path d="M122.2 89.3C117.009 89.3 112.8 93.5089 112.8 98.7V122.2C112.8 127.391 117.009 131.6 122.2 131.6C127.391 131.6 131.6 127.391 131.6 122.2V98.7C131.6 93.5089 127.391 89.3 122.2 89.3ZM126.9 122.2C126.9 124.796 124.796 126.9 122.2 126.9C119.604 126.9 117.5 124.796 117.5 122.2V98.7C117.5 96.1045 119.604 94 122.2 94C124.796 94 126.9 96.1045 126.9 98.7V122.2Z" fill="#90A8BE"/>
<path d="M24.1886 41.6114C25.1066 42.5282 26.5937 42.5282 27.5116 41.6114L48.6616 20.4614C49.5521 19.5388 49.5394 18.0735 48.633 17.167C47.7265 16.2605 46.2612 16.2479 45.3386 17.1384L24.1886 38.2884C23.2718 39.2063 23.2718 40.6934 24.1886 41.6114Z" fill="#90A8BE"/>
<path d="M37.6001 37.6C37.6001 41.4934 40.7568 44.65 44.6501 44.65C48.5434 44.65 51.7001 41.4934 51.7001 37.6C51.7001 33.7067 48.5434 30.55 44.6501 30.55C40.7568 30.55 37.6001 33.7067 37.6001 37.6ZM47.0001 37.6C47.0001 38.8978 45.9479 39.95 44.6501 39.95C43.3523 39.95 42.3001 38.8978 42.3001 37.6C42.3001 36.3023 43.3523 35.25 44.6501 35.25C45.9479 35.25 47.0001 36.3023 47.0001 37.6Z" fill="#90A8BE"/>
<path d="M28.1999 28.2001C32.0932 28.2001 35.2499 25.0434 35.2499 21.1501C35.2499 17.2568 32.0932 14.1001 28.1999 14.1001C24.3066 14.1001 21.1499 17.2568 21.1499 21.1501C21.1499 25.0434 24.3066 28.2001 28.1999 28.2001ZM28.1999 18.8001C29.4977 18.8001 30.5499 19.8523 30.5499 21.1501C30.5499 22.4479 29.4977 23.5001 28.1999 23.5001C26.9021 23.5001 25.8499 22.4479 25.8499 21.1501C25.8499 19.8523 26.9021 18.8001 28.1999 18.8001Z" fill="#90A8BE"/>
<path d="M16.4501 63.45H44.6501C45.9479 63.45 47.0001 62.3978 47.0001 61.1C47.0001 59.8022 45.9479 58.75 44.6501 58.75H16.4501C15.1523 58.75 14.1001 59.8022 14.1001 61.1C14.1001 62.3978 15.1523 63.45 16.4501 63.45Z" fill="#90A8BE"/>
<path d="M49.3501 68.1499H16.4501C15.1523 68.1499 14.1001 69.2021 14.1001 70.4999C14.1001 71.7977 15.1523 72.8499 16.4501 72.8499H49.3501C50.6479 72.8499 51.7001 71.7977 51.7001 70.4999C51.7001 69.2021 50.6479 68.1499 49.3501 68.1499Z" fill="#90A8BE"/>
<path d="M25.8501 77.55H16.4501C15.1523 77.55 14.1001 78.6023 14.1001 79.9C14.1001 81.1978 15.1523 82.25 16.4501 82.25H25.8501C27.1479 82.25 28.2001 81.1978 28.2001 79.9C28.2001 78.6023 27.1479 77.55 25.8501 77.55Z" fill="#90A8BE"/>
<path d="M49.3499 77.55H35.2499C33.9521 77.55 32.8999 78.6023 32.8999 79.9C32.8999 81.1978 33.9521 82.25 35.2499 82.25H49.3499C50.6477 82.25 51.6999 81.1978 51.6999 79.9C51.6999 78.6023 50.6477 77.55 49.3499 77.55Z" fill="#90A8BE"/>
</svg>
