<svg width="50" height="56" viewBox="0 0 50 56" fill="none" xmlns="http://www.w3.org/2000/svg">
<path d="M26.7299 0.412223C25.7786 -0.137408 24.2213 -0.137408 23.27 0.412223L19.506 2.58609C18.5547 3.13572 18.5547 4.03415 19.506 4.58378L26.8191 8.80584C27.7704 9.35548 27.7704 10.2539 26.8191 10.8035L12.5029 19.0691C11.5516 19.6188 10.7729 20.967 10.7729 22.0651V22.4362C10.7729 23.5343 11.5516 24.8826 12.5029 25.4322L15.9522 27.424C16.9034 27.9736 17.6821 27.5238 17.6821 26.4258V26.0546C17.6821 24.9565 18.4607 23.6083 19.412 23.0587L33.7283 14.7931C34.6795 14.2434 36.2368 14.2434 37.1881 14.7931L41.0473 17.021C41.9986 17.5706 42.7772 18.9188 42.7772 20.0169V32.4506C42.7772 33.5486 43.5558 33.9985 44.5071 33.4488L48.2712 31.275C49.2224 30.7253 50.0011 29.3771 50.0011 28.279V15.8442C50.0011 14.7461 49.2224 13.3978 48.2712 12.8482L26.7299 0.412223Z" fill="url(#paint0_linear)"/>
<path d="M26.7299 0.412223C25.7786 -0.137408 24.2213 -0.137408 23.27 0.412223L19.506 2.58609C18.5547 3.13572 18.5547 4.03415 19.506 4.58378L26.8191 8.80584C27.7704 9.35548 27.7704 10.2539 26.8191 10.8035L12.5029 19.0691C11.5516 19.6188 10.7729 20.967 10.7729 22.0651V22.4362C10.7729 23.5343 11.5516 24.8826 12.5029 25.4322L15.9522 27.424C16.9034 27.9736 17.6821 27.5238 17.6821 26.4258V26.0546C17.6821 24.9565 18.4607 23.6083 19.412 23.0587L33.7283 14.7931C34.6795 14.2434 36.2368 14.2434 37.1881 14.7931L41.0473 17.021C41.9986 17.5706 42.7772 18.9188 42.7772 20.0169V32.4506C42.7772 33.5486 43.5558 33.9985 44.5071 33.4488L48.2712 31.275C49.2224 30.7253 50.0011 29.3771 50.0011 28.279V15.8442C50.0011 14.7461 49.2224 13.3978 48.2712 12.8482L26.7299 0.412223Z" fill="url(#paint1_radial)"/>
<path d="M26.7299 35.1969C25.7786 35.7465 24.2214 35.7465 23.2701 35.1969L8.95382 26.9313C8.00254 26.3817 7.22389 25.0334 7.22389 23.9353V19.4796C7.22389 18.3815 8.00254 17.0332 8.95382 16.4836L19.721 10.2674C20.6722 9.71775 20.6722 8.81931 19.721 8.26968L15.9569 6.09582C15.0056 5.54619 13.4483 5.54619 12.4971 6.09582L1.72993 12.3121C0.778644 12.8617 0 14.2099 0 15.308V40.1812C0 41.2793 0.778644 42.6275 1.72993 43.1771L5.49396 45.351C6.44525 45.9006 7.22389 45.4508 7.22389 44.3527V35.9074C7.22389 34.8094 8.00254 34.3595 8.95382 34.9092L23.2701 43.1748C24.2214 43.7244 25.7786 43.7244 26.7299 43.1748L27.0517 42.9892C28.003 42.4396 28.7817 41.0914 28.7817 39.9933V36.0108C28.7817 34.9127 28.003 34.4629 27.0517 35.0125L26.7299 35.1969Z" fill="url(#paint2_linear)"/>
<path d="M26.7299 35.1969C25.7786 35.7465 24.2214 35.7465 23.2701 35.1969L8.95382 26.9313C8.00254 26.3817 7.22389 25.0334 7.22389 23.9353V19.4796C7.22389 18.3815 8.00254 17.0332 8.95382 16.4836L19.721 10.2674C20.6722 9.71775 20.6722 8.81931 19.721 8.26968L15.9569 6.09582C15.0056 5.54619 13.4483 5.54619 12.4971 6.09582L1.72993 12.3121C0.778644 12.8617 0 14.2099 0 15.308V40.1812C0 41.2793 0.778644 42.6275 1.72993 43.1771L5.49396 45.351C6.44525 45.9006 7.22389 45.4508 7.22389 44.3527V35.9074C7.22389 34.8094 8.00254 34.3595 8.95382 34.9092L23.2701 43.1748C24.2214 43.7244 25.7786 43.7244 26.7299 43.1748L27.0517 42.9892C28.003 42.4396 28.7817 41.0914 28.7817 39.9933V36.0108C28.7817 34.9127 28.003 34.4629 27.0517 35.0125L26.7299 35.1969Z" fill="url(#paint3_radial)"/>
<path d="M40.9571 38.7098C40.0058 39.2595 39.2271 38.8097 39.2271 37.7116V21.1792C39.2271 20.0811 38.4485 18.7329 37.4972 18.1832L37.1754 17.9977C36.2241 17.448 34.6668 17.448 33.7156 17.9977L30.2663 19.9895C29.315 20.5391 29.315 21.4376 30.2663 21.9872L30.5881 22.1728C31.5393 22.7224 32.318 24.0706 32.318 25.1687V41.6999C32.318 42.798 31.5393 44.1462 30.5881 44.6959L26.7289 46.9238C25.7776 47.4734 24.2203 47.4734 23.269 46.9238L12.5019 40.7075C11.5506 40.1579 10.772 40.6077 10.772 41.7058V46.0523C10.772 47.1504 11.5506 48.4987 12.5019 49.0483L23.269 55.2645C24.2203 55.8142 25.7776 55.8142 26.7289 55.2645L48.269 42.8285C49.2203 42.2789 49.999 40.9307 49.999 39.8326V35.486C49.999 34.3879 49.2203 33.9381 48.269 34.4878L40.9571 38.7098Z" fill="url(#paint4_linear)"/>
<path d="M40.9571 38.7098C40.0058 39.2595 39.2271 38.8097 39.2271 37.7116V21.1792C39.2271 20.0811 38.4485 18.7329 37.4972 18.1832L37.1754 17.9977C36.2241 17.448 34.6668 17.448 33.7156 17.9977L30.2663 19.9895C29.315 20.5391 29.315 21.4376 30.2663 21.9872L30.5881 22.1728C31.5393 22.7224 32.318 24.0706 32.318 25.1687V41.6999C32.318 42.798 31.5393 44.1462 30.5881 44.6959L26.7289 46.9238C25.7776 47.4734 24.2203 47.4734 23.269 46.9238L12.5019 40.7075C11.5506 40.1579 10.772 40.6077 10.772 41.7058V46.0523C10.772 47.1504 11.5506 48.4987 12.5019 49.0483L23.269 55.2645C24.2203 55.8142 25.7776 55.8142 26.7289 55.2645L48.269 42.8285C49.2203 42.2789 49.999 40.9307 49.999 39.8326V35.486C49.999 34.3879 49.2203 33.9381 48.269 34.4878L40.9571 38.7098Z" fill="url(#paint5_radial)"/>
<defs>
<linearGradient id="paint0_linear" x1="16" y1="55.5" x2="29.1567" y2="-1.46506" gradientUnits="userSpaceOnUse">
<stop stop-color="#265195"/>
<stop offset="1" stop-color="#3796F6"/>
</linearGradient>
<radialGradient id="paint1_radial" cx="0" cy="0" r="1" gradientUnits="userSpaceOnUse" gradientTransform="translate(36.5 5.5) rotate(138.215) scale(31.5159 36.7038)">
<stop stop-color="#66B8E1"/>
<stop offset="1" stop-color="#66B8E1" stop-opacity="0"/>
</radialGradient>
<linearGradient id="paint2_linear" x1="15.5" y1="55.5" x2="47.5987" y2="11.0398" gradientUnits="userSpaceOnUse">
<stop stop-color="#265195"/>
<stop offset="1" stop-color="#3796F6"/>
</linearGradient>
<radialGradient id="paint3_radial" cx="0" cy="0" r="1" gradientUnits="userSpaceOnUse" gradientTransform="translate(38 6) rotate(170.981) scale(31.8944 23.0057)">
<stop stop-color="#66B8E1"/>
<stop offset="1" stop-color="#66B8E1" stop-opacity="0"/>
</radialGradient>
<linearGradient id="paint4_linear" x1="16" y1="56" x2="34.5" y2="0.999989" gradientUnits="userSpaceOnUse">
<stop stop-color="#265195"/>
<stop offset="1" stop-color="#3796F6"/>
</linearGradient>
<radialGradient id="paint5_radial" cx="0" cy="0" r="1" gradientUnits="userSpaceOnUse" gradientTransform="translate(37.5 5.5) rotate(139.399) scale(32.2684 33.2305)">
<stop stop-color="#66B8E1"/>
<stop offset="1" stop-color="#66B8E1" stop-opacity="0"/>
</radialGradient>
</defs>
</svg>
