<svg width="477" height="418" viewBox="0 0 477 418" fill="none" xmlns="http://www.w3.org/2000/svg">
<path fill-rule="evenodd" clip-rule="evenodd" d="M273.881 8.5925L273.879 8.59162C269.906 6.29597 264.341 5 258.494 5C252.647 5 247.081 6.29597 243.108 8.59162L204.189 31.0689C200.198 33.3751 199.31 35.7261 199.31 37.0674C199.31 38.4087 200.197 40.7591 204.188 43.0653L204.189 43.066L279.804 86.7203L279.805 86.7211C285.649 90.0978 289.681 95.2334 289.681 101.378C289.681 107.523 285.649 112.659 279.805 116.036L131.778 201.5L131.777 201.501C127.803 203.798 123.898 207.971 120.975 213.033C118.051 218.097 116.39 223.562 116.39 228.148V231.986C116.39 236.572 118.051 242.037 120.975 247.101C123.898 252.163 127.803 256.336 131.777 258.633L131.778 258.634L167.442 279.228L167.443 279.229C171.433 281.534 173.912 281.127 175.074 280.456C176.237 279.785 177.829 277.841 177.829 273.236V269.399C177.829 262.631 180.193 255.45 183.754 249.283C187.315 243.117 192.353 237.479 198.215 234.092L198.216 234.091L346.241 148.628C352.104 145.24 359.508 143.695 366.63 143.695C373.752 143.695 381.155 145.24 387.018 148.628L426.921 171.663C432.782 175.05 437.821 180.688 441.382 186.855C444.942 193.021 447.307 200.202 447.307 206.97V329.583V335.531C447.307 340.136 448.899 342.08 450.061 342.751C450.736 343.14 451.855 343.441 453.456 343.174C454.612 342.98 456.019 342.491 457.692 341.524L496.612 319.047C500.586 316.75 504.492 312.576 507.415 307.513C510.339 302.45 512 296.984 512 292.398V163.825C512 159.239 510.339 153.774 507.415 148.71C504.491 143.647 500.586 139.474 496.612 137.177L273.881 8.5925ZM499.113 132.848C508.949 138.531 517 152.471 517 163.825V292.398C517 303.752 508.949 317.693 499.113 323.376L460.194 345.853C458.592 346.778 457.039 347.43 455.559 347.823C447.95 349.844 442.307 345.037 442.307 335.531V318.532V206.97C442.307 195.616 434.256 181.676 424.42 175.993L384.517 152.957C374.681 147.274 358.579 147.274 348.743 152.957L200.716 238.421C190.88 244.105 182.829 258.045 182.829 269.399V273.236C182.829 284.59 174.778 289.241 164.942 283.558L129.277 262.963C119.441 257.28 111.39 243.34 111.39 231.986V228.148C111.39 216.794 119.441 202.854 129.277 197.171L277.304 111.706C287.14 106.023 287.14 96.7335 277.304 91.0504L201.687 47.3953C191.851 41.7122 191.851 32.4226 201.687 26.7395L240.607 4.2623C250.443 -1.42077 266.545 -1.42077 276.381 4.2623L499.113 132.848ZM279.709 362.022L276.381 363.928C266.545 369.611 250.443 369.611 240.607 363.928L92.5805 278.464C82.7444 272.781 74.6934 258.84 74.6934 247.486V201.414C74.6934 190.06 82.7444 176.12 92.5805 170.437L203.91 106.162C213.746 100.479 213.746 91.1897 203.91 85.5066L164.991 63.0294C155.155 57.3463 139.053 57.3463 129.217 63.0294L17.8871 127.304C8.05101 132.987 0 146.927 0 158.281V415.464C0 426.818 8.05101 440.759 17.8871 446.442L56.8063 468.919C66.6424 474.602 74.6934 469.951 74.6934 458.597V371.275C74.6934 359.921 82.7444 355.27 92.5805 360.953L240.607 446.418C250.443 452.101 266.545 452.101 276.381 446.418L279.709 444.499C289.545 438.816 297.596 424.875 297.596 413.521V372.343C297.596 360.989 289.545 356.339 279.709 362.022ZM277.207 440.17C281.182 437.873 285.087 433.7 288.011 428.636C290.935 423.573 292.596 418.107 292.596 413.521V372.343C292.596 367.738 291.004 365.795 289.841 365.124C288.679 364.453 286.2 364.046 282.21 366.351L282.202 366.355L282.195 366.36L278.883 368.257L278.878 368.26C273.016 371.646 265.614 373.19 258.494 373.19C251.373 373.19 243.97 371.645 238.107 368.258L238.106 368.257L90.0805 282.794L90.0791 282.793C84.2178 279.406 79.1793 273.768 75.6185 267.602C72.0578 261.436 69.6934 254.254 69.6934 247.486V201.414C69.6934 194.646 72.0578 187.465 75.6185 181.299C79.1793 175.132 84.2178 169.494 90.0791 166.108L90.0805 166.107L201.409 101.833L201.41 101.832C205.401 99.5261 206.287 97.1758 206.287 95.8345C206.287 94.4932 205.401 92.1427 201.41 89.8364L162.49 67.3592C158.517 65.0635 152.951 63.7671 147.104 63.7671C141.257 63.7671 135.691 65.0631 131.718 67.3587L131.717 67.3595L20.3885 131.633L20.387 131.634C16.4127 133.931 12.5083 138.104 9.58495 143.166C6.6611 148.23 5 153.695 5 158.281V415.464C5 420.05 6.6611 425.516 9.58494 430.579C12.5085 435.642 16.4131 439.815 20.3877 442.112L59.3069 464.589C63.2967 466.895 65.7766 466.488 66.9387 465.817C68.1013 465.146 69.6934 463.202 69.6934 458.597V371.275C69.6934 364.526 72.1268 358.467 77.4488 355.395C82.7707 352.323 89.2345 353.246 95.0805 356.623L95.0819 356.624L243.107 442.087L243.109 442.088C247.082 444.384 252.647 445.68 258.494 445.68C264.341 445.68 269.907 444.384 273.88 442.088L273.884 442.086L277.207 440.17ZM467.723 374.708L499.091 356.596C508.927 350.913 516.978 355.564 516.978 366.918V411.86C516.978 423.214 508.927 437.154 499.091 442.837L276.371 571.423C266.535 577.106 250.433 577.106 240.596 571.423L129.267 507.148C119.431 501.465 111.38 487.525 111.38 476.171V431.228C111.38 419.874 119.431 415.224 129.267 420.907L240.596 485.181C250.433 490.864 266.535 490.864 276.371 485.181L316.274 462.145C326.11 456.462 334.161 442.522 334.161 431.168V260.239C334.161 248.885 326.11 234.944 316.274 229.261L312.946 227.343C303.11 221.66 303.11 212.37 312.946 206.687L348.611 186.092C358.447 180.409 374.549 180.409 384.385 186.092L387.713 188.011C397.549 193.694 405.6 207.634 405.6 218.988V237.402V389.929C405.6 401.283 413.651 405.934 423.487 400.251L467.723 374.708ZM496.591 438.507L496.59 438.508L273.871 567.093L273.869 567.093C269.896 569.389 264.331 570.685 258.484 570.685C252.637 570.685 247.071 569.389 243.098 567.093L243.096 567.093L131.768 502.819L131.767 502.818C127.792 500.521 123.888 496.348 120.965 491.286C118.041 486.222 116.38 480.757 116.38 476.171V431.228C116.38 426.623 117.972 424.68 119.134 424.009C120.296 423.338 122.776 422.931 126.765 425.236L126.767 425.237L238.095 489.51L238.097 489.511C243.959 492.898 251.362 494.443 258.484 494.443C265.605 494.443 273.008 492.898 278.87 489.511L278.872 489.51L318.773 466.475L318.775 466.475C324.636 463.088 329.675 457.45 333.236 451.283C336.796 445.117 339.161 437.936 339.161 431.168V260.239C339.161 253.471 336.796 246.289 333.236 240.123C329.675 233.957 324.636 228.318 318.775 224.932L315.448 223.013C311.456 220.707 310.569 218.356 310.569 217.015C310.569 215.673 311.456 213.323 315.448 211.016L351.111 190.422L351.112 190.421C355.086 188.126 360.651 186.83 366.498 186.83C372.345 186.83 377.911 188.126 381.884 190.421L381.888 190.423L385.211 192.34L385.215 192.342C389.188 194.639 393.092 198.811 396.015 203.873C398.939 208.936 400.6 214.402 400.6 218.988V226.351V389.929C400.6 396.678 403.033 402.737 408.355 405.809C413.677 408.881 420.141 407.958 425.987 404.581L425.988 404.58L469.794 379.286L501.591 360.926L501.592 360.925C505.582 358.62 508.061 359.027 509.223 359.698C510.386 360.369 511.978 362.313 511.978 366.918V411.86C511.978 416.446 510.317 421.912 507.393 426.975C504.47 432.037 500.565 436.211 496.591 438.507Z" fill="white"/>
</svg>
