<svg width="60" height="69" viewBox="0 0 60 69" fill="none" xmlns="http://www.w3.org/2000/svg">
<path fill-rule="evenodd" clip-rule="evenodd" d="M31.2206 0.289513C30.5497 -0.0965043 29.4505 -0.0965043 28.7796 0.289513L22.5519 3.87035C21.881 4.25637 21.881 4.88803 22.5519 5.27405L33.0386 11.3043C33.7094 11.6904 33.7094 12.322 33.0386 12.708L14.1482 23.5713C13.4773 23.9573 12.9277 24.9048 12.9277 25.6768V28.087C12.9277 28.859 13.4773 29.8065 14.1482 30.1925L19.9968 33.5558C20.6676 33.9418 21.2173 33.626 21.2173 32.8539V30.4438C21.2173 29.6717 21.7669 28.7242 22.4377 28.3382L41.3281 17.475C41.999 17.089 43.0982 17.089 43.7691 17.475L50.1096 21.1218C50.7804 21.5078 51.33 22.4553 51.33 23.2274V40.0549C51.33 40.8269 51.8797 41.1428 52.5505 40.7567L58.7782 37.1759C59.4491 36.7899 59.9987 35.8424 59.9987 35.0704V18.2428C59.9987 17.4708 59.4491 16.5233 58.7782 16.1373L31.2206 0.289513ZM31.2205 43.4897C30.5497 43.8757 29.4504 43.8757 28.7796 43.4897L9.88914 32.6265C9.21831 32.2405 8.66868 31.293 8.66868 30.5209V23.2287C8.66868 22.4567 9.21831 21.5092 9.88914 21.1232L24.5206 12.7094C25.1915 12.3234 25.1915 11.6917 24.5206 11.3057L18.2929 7.72347C17.622 7.33746 16.5228 7.33746 15.8519 7.72347L1.22046 16.1372C0.549632 16.5233 0 17.4708 0 18.2428V49.9383C0 50.7103 0.549632 51.6578 1.22046 52.0439L7.44821 55.6247C8.11905 56.0107 8.66868 55.6949 8.66868 54.9228V42.8623C8.66868 42.0902 9.21831 41.7744 9.88914 42.1604L28.7796 53.0236C29.4504 53.4097 30.5497 53.4097 31.2205 53.0236L33.3161 51.8179C33.987 51.4318 34.5366 50.4843 34.5366 49.7123V42.9858C34.5366 42.2138 33.987 41.8979 33.3161 42.2839L31.2205 43.4897ZM47.0725 47.4033C47.0725 48.1753 47.6221 48.4911 48.293 48.1051L58.7796 42.0748C59.4505 41.6888 60.0001 42.0046 60.0001 42.7767V49.9397C60.0001 50.7118 59.4505 51.6593 58.7796 52.0453L31.2206 67.8931C30.5497 68.2791 29.4505 68.2791 28.7796 67.8931L14.1482 59.4793C13.4773 59.0933 12.9277 58.1458 12.9277 57.3737V50.2107C12.9277 49.4386 13.4773 49.1228 14.1482 49.5088L28.781 57.9226C29.4519 58.3086 30.5511 58.3086 31.222 57.9226L37.5625 54.2758C38.2333 53.8898 38.7829 52.9423 38.7829 52.1702V30.4452C38.7829 29.6732 38.2333 28.7257 37.5625 28.3396L35.4668 27.1339C34.796 26.7478 34.796 26.1162 35.4668 25.7302L41.3155 22.3669C41.9863 21.9809 43.0855 21.9809 43.7564 22.3669L45.852 23.5727C46.5229 23.9587 47.0725 24.9062 47.0725 25.6782V47.4033Z" fill="url(#paint0_radial)"/>
<defs>
<radialGradient id="paint0_radial" cx="0" cy="0" r="1" gradientUnits="userSpaceOnUse" gradientTransform="translate(30.0001 34) rotate(90) scale(66.5 67.8954)">
<stop/>
<stop offset="1" stop-color="#8A9AAB"/>
</radialGradient>
</defs>
</svg>
