<svg width="60" height="60" viewBox="0 0 60 60" fill="none" xmlns="http://www.w3.org/2000/svg">
<rect width="60" height="60" fill="#F7FAFC"/>
<path d="M35.75 30.0625C35.75 29.7344 35.4219 29.4062 35.0938 29.4062H25.9062C25.5234 29.4062 25.25 29.7344 25.25 30.0625V31.5938C25.25 31.9766 25.5234 32.25 25.9062 32.25H35.0938C35.4219 32.25 35.75 31.9766 35.75 31.5938V30.0625ZM35.0938 34H25.9062C25.5234 34 25.25 34.3281 25.25 34.6562V36.1875C25.25 36.5703 25.5234 36.8438 25.9062 36.8438H35.0938C35.4219 36.8438 35.75 36.5703 35.75 36.1875V34.6562C35.75 34.3281 35.4219 34 35.0938 34ZM41 23.7188C41 23.0625 40.6719 22.3516 40.1797 21.8594L35.6406 17.3203C35.1484 16.8281 34.4375 16.5 33.7812 16.5H22.625C21.1484 16.5 20 17.7031 20 19.125V41.875C20 43.3516 21.1484 44.5 22.625 44.5H38.375C39.7969 44.5 41 43.3516 41 41.875V23.7188ZM34 19.3438L38.1562 23.5H34V19.3438ZM38.375 41.875H22.625V19.125H31.375V24.8125C31.375 25.5781 31.9219 26.125 32.6875 26.125H38.375V41.875Z" fill="#364E65"/>
</svg>
