<svg width="60" height="60" viewBox="0 0 60 60" fill="none" xmlns="http://www.w3.org/2000/svg">
<rect width="60" height="60" fill="#F7FAFC"/>
<path d="M41 16.5H21.75C19.7812 16.5 18.25 18.0859 18.25 20V41C18.25 42.9688 19.7812 44.5 21.75 44.5H41C41.9297 44.5 42.75 43.7344 42.75 42.75V18.25C42.75 17.3203 41.9297 16.5 41 16.5ZM40.125 41.875H21.75C21.2578 41.875 20.875 41.4922 20.875 41V20C20.875 19.5625 21.2578 19.125 21.75 19.125H40.125V41.875ZM24.375 39.25H36.625C37.0625 39.25 37.5 38.8672 37.5 38.375C37.5 37.9375 37.0625 37.5 36.625 37.5H24.375C23.8828 37.5 23.5 37.9375 23.5 38.375C23.5 38.8672 23.8828 39.25 24.375 39.25ZM30.5 34.4375C34.1094 34.4375 37.0625 31.5391 37.0625 27.875C37.0625 24.2656 34.1094 21.3125 30.5 21.3125C26.8359 21.3125 23.9375 24.2656 23.9375 27.875C23.9375 31.5391 26.8359 34.4375 30.5 34.4375ZM35.2031 27H33.2891C33.2344 25.7422 33.0156 24.5938 32.6328 23.6094C33.9453 24.3203 34.9297 25.5234 35.2031 27ZM33.2891 28.75H35.2031C34.9297 30.2812 33.9453 31.4844 32.6328 32.1953C33.0156 31.2109 33.2344 30.0625 33.2891 28.75ZM30.5 23.2266C30.8281 23.6641 31.4297 24.9766 31.5391 27H29.4062C29.5156 24.9766 30.1172 23.6641 30.5 23.2266ZM31.5391 28.75C31.4297 30.8281 30.8281 32.1406 30.5 32.5781C30.1172 32.1406 29.5156 30.8281 29.4062 28.75H31.5391ZM28.3125 23.6094C27.9297 24.5938 27.7109 25.7422 27.6562 27H25.7422C26.0156 25.5234 27 24.3203 28.3125 23.6094ZM27.6562 28.75C27.7109 30.0625 27.9297 31.2109 28.3125 32.1953C27 31.4844 26.0156 30.2812 25.7422 28.75H27.6562Z" fill="#364E65"/>
</svg>
