<svg width="100" height="100" viewBox="0 0 100 100" fill="none" xmlns="http://www.w3.org/2000/svg">
<rect width="100" height="100" fill="white"/>
<circle cx="50" cy="50" r="50" fill="#F7FAFC"/>
<path d="M63.4449 44.3049C65.5585 44.3049 67.7813 44.5527 70.1761 45.0543L56.2263 34.1735C55.8986 33.9177 55.4314 33.9481 55.1381 34.2426L52.4582 36.9496C52.1669 37.244 52.1467 37.7111 52.4117 38.0299L53.698 39.5814C53.9711 39.9124 54.4363 40.014 54.8226 39.8312L56.4265 39.0717L60.1096 44.5202C61.1958 44.376 62.3041 44.3049 63.4449 44.3049Z" fill="#3796F6"/>
<path d="M40.2052 44.5202L43.8863 39.0737L45.4902 39.8332C45.8765 40.016 46.3417 39.9145 46.6148 39.5834L47.9011 38.032C48.1641 37.7131 48.1438 37.2461 47.8546 36.9516L45.1747 34.2446C44.8814 33.9481 44.4142 33.9177 44.0865 34.1756L30.1327 45.0604C32.5375 44.5547 34.7685 44.3049 36.8902 44.3049C38.0228 44.3049 39.1251 44.376 40.2052 44.5202Z" fill="#3796F6"/>
<path d="M73.671 49.5097C73.5961 49.0711 73.2826 48.7076 72.8579 48.5857C69.3366 47.5805 66.2481 47.1033 63.4427 47.1033C59.7232 47.1033 56.5012 47.9461 53.4289 49.5016H51.1717H50.8299H49.5031H49.1612H46.904C43.8317 47.9461 40.6097 47.1033 36.8902 47.1033C34.0849 47.1033 30.9984 47.5805 27.475 48.5857C27.0503 48.7076 26.7348 49.0711 26.662 49.5097L26.0188 53.3194C25.9439 53.7682 26.0956 54.2312 26.4233 54.546L27.7481 55.8172C27.9928 58.9811 28.7007 60.4291 30.3107 62.4436C30.5959 62.801 31.0368 62.998 31.4919 62.998H44.0987C45.197 62.998 46.1739 62.2933 46.5238 61.2475L47.5614 58.1485H47.5715C47.5735 58.1323 47.5755 58.116 47.5776 58.1018C47.7434 56.7534 48.1378 55.6 48.6697 54.8405C48.7163 54.7734 48.7628 54.7125 48.8113 54.6516C48.8437 54.613 48.874 54.5744 48.9064 54.5358C48.9873 54.4445 49.0702 54.3632 49.1552 54.2881C49.3837 54.0911 49.6264 53.9571 49.8813 53.9022C49.9743 53.8819 50.0674 53.8698 50.1624 53.8698C50.2575 53.8698 50.3525 53.8799 50.4456 53.9022C50.7004 53.9591 50.9431 54.0911 51.1717 54.2901C51.2566 54.3632 51.3396 54.4465 51.4205 54.5379C51.4528 54.5744 51.4852 54.613 51.5155 54.6516C51.5641 54.7125 51.6106 54.7734 51.6571 54.8405C52.187 55.6 52.5835 56.7534 52.7493 58.1039C52.7513 58.1201 52.7534 58.1343 52.7554 58.1506H52.7655L53.8031 61.2495C54.153 62.2953 55.1299 63 56.2282 63H68.835C69.2921 63 69.731 62.803 70.0162 62.4456C71.6261 60.4311 72.334 58.9832 72.5788 55.8172L73.9036 54.546C74.2312 54.2312 74.3849 53.7702 74.3081 53.3194L73.671 49.5097Z" fill="#3796F6"/>
</svg>
