<svg width="100" height="100" viewBox="0 0 100 100" fill="none" xmlns="http://www.w3.org/2000/svg">
<rect width="100" height="100" fill="white"/>
<circle cx="50" cy="50" r="50" fill="#F7FAFC"/>
<path d="M47.5287 41.1054C47.9468 41.1902 48.3776 41.2353 48.8209 41.2353C52.4175 41.2353 55.3339 38.3035 55.3339 34.6879C55.3339 31.0723 52.4175 28.1386 48.8209 28.1386C45.2225 28.1386 42.306 31.0704 42.306 34.6861C42.306 35.0992 42.3455 35.5034 42.4191 35.8949C44.7379 36.8746 46.5864 38.7582 47.5287 41.1054Z" fill="#3796F6"/>
<path d="M40.6836 37.82C40.0787 37.6504 39.4416 37.5566 38.7812 37.5566C34.8884 37.5566 31.7333 40.7284 31.7333 44.6417C31.7333 48.555 34.8884 51.7268 38.7812 51.7268C42.6739 51.7268 45.829 48.555 45.829 44.6417C45.829 44.012 45.7465 43.404 45.5939 42.8231C45.4539 42.289 45.2529 41.7784 44.9981 41.3021C44.3556 40.0969 43.3774 39.0992 42.1875 38.4388C41.7155 38.1772 41.2112 37.9697 40.6836 37.82ZM38.7812 48.9844C36.396 48.9844 34.4613 47.0395 34.4613 44.6417C34.4613 42.2421 36.396 40.299 38.7812 40.299C41.1681 40.299 43.1011 42.2439 43.1011 44.6417C43.1011 47.0395 41.1663 48.9844 38.7812 48.9844Z" fill="#3796F6"/>
<path d="M62.2113 52.0245C61.9654 51.7809 61.6334 51.6456 61.2888 51.6456H46.1737C45.253 51.6456 44.5064 52.3962 44.5064 53.3217V54.7091C44.5064 55.6347 45.253 56.3853 46.1737 56.3853H50.3446C50.6371 56.3853 50.874 56.6234 50.874 56.9193V57.9044C50.874 58.1985 50.6371 58.4366 50.3446 58.4366H39.6498C39.4578 58.4366 39.2729 58.3609 39.1347 58.2273L33.3952 52.6469C33.2463 52.5026 33.0596 52.4142 32.8622 52.3889C32.5104 52.342 32.2053 52.5892 31.9361 52.8237L30.7857 53.8287C30.6511 53.946 30.4931 54.0344 30.3585 54.1516C30.2114 54.2797 30.1055 54.4529 30.0606 54.6478C29.9942 54.9311 30.0606 55.2306 30.2401 55.4579L37.8084 65.0166C37.9879 65.2421 38.2589 65.3738 38.5461 65.3738H59.1567C59.3308 65.3738 59.4995 65.4334 59.6359 65.5434L63.1571 68.3977C63.3869 68.5835 63.7225 68.542 63.9001 68.3057L69.8766 60.3635C70.0614 60.1164 70.0363 59.7699 69.8174 59.5516L62.2113 52.0245Z" fill="#3796F6"/>
</svg>
