<svg width="100" height="100" viewBox="0 0 100 100" fill="none" xmlns="http://www.w3.org/2000/svg">
<rect width="100" height="100" fill="white"/>
<circle cx="50" cy="50" r="50" fill="#F7FAFC"/>
<path d="M45.0011 25.6204V29.8692C45.0011 30.2116 45.2785 30.4896 45.6202 30.4896H53.9665C54.3082 30.4896 54.5856 30.2116 54.5856 29.8692V25.6204C54.5856 25.278 54.3082 25 53.9665 25H45.6202C45.2785 25 45.0011 25.278 45.0011 25.6204Z" fill="#3796F6"/>
<path d="M65.8899 42.1812C66.1536 41.9629 66.1926 41.5723 65.9748 41.308L64.0349 38.9412C63.8171 38.6769 63.4273 38.6379 63.1636 38.8562L62.9251 39.0515C60.1576 36.0964 56.404 34.0789 52.1964 33.5274V31.9695H47.3881V33.5481C38.6772 34.7614 31.9474 42.2731 31.9474 51.3336C31.9474 61.2352 39.9865 69.2915 49.8668 69.2915C59.7471 69.2915 67.7862 61.2352 67.7862 51.3336C67.7862 48.1327 66.9447 45.1271 65.4749 42.5213L65.8899 42.1812ZM61.8727 50.5547C61.5333 50.5547 61.2582 50.8304 61.2582 51.1705C61.2582 51.5106 61.5333 51.7863 61.8727 51.7863H62.5881C62.4803 54.8172 61.3155 57.5839 59.4467 59.7209L58.8414 59.1142C58.6006 58.873 58.2108 58.873 57.9724 59.1142C57.7316 59.3555 57.7316 59.7462 57.9724 59.9851L58.5938 60.6079C56.4934 62.5932 53.7213 63.8731 50.6602 64.0616V63.0206C50.6602 62.6805 50.385 62.4048 50.0457 62.4048C49.7063 62.4048 49.4312 62.6805 49.4312 63.0206V64.0777C46.3173 63.9719 43.4833 62.7426 41.3233 60.7802L42.1167 59.9851C42.3574 59.7439 42.3574 59.3532 42.1167 59.1142C41.8759 58.873 41.4861 58.873 41.2453 59.1142L40.4497 59.9116C38.4846 57.7493 37.2533 54.9068 37.1433 51.7863H38.2141C38.5534 51.7863 38.8286 51.5106 38.8286 51.1705C38.8286 50.8304 38.5534 50.5547 38.2141 50.5547H37.157C37.3427 47.4778 38.6199 44.6951 40.6056 42.5856L41.243 43.2244C41.3623 43.3439 41.5205 43.406 41.6787 43.406C41.8369 43.406 41.9928 43.3462 42.1144 43.2244C42.3551 42.9832 42.3551 42.5925 42.1144 42.3535L41.493 41.7308C43.63 39.8558 46.3953 38.6861 49.4289 38.5827V39.3181C49.4289 39.6581 49.704 39.9339 50.0434 39.9339C50.3827 39.9339 50.6579 39.6581 50.6579 39.3181V38.5988C53.6387 38.7827 56.3467 39.9982 58.4264 41.8963L57.9701 42.3535C57.7293 42.5948 57.7293 42.9855 57.9701 43.2267C58.0114 43.2681 58.0595 43.3003 58.1077 43.3278C58.1994 43.3784 58.3026 43.4083 58.4035 43.4083C58.5617 43.4083 58.7176 43.3485 58.8391 43.2267L59.2931 42.7695C60.1323 43.6955 60.834 44.7479 61.3751 45.89C62.0515 47.3193 62.4688 48.8956 62.5674 50.5547H61.8727V50.5547Z" fill="#3796F6"/>
<path d="M67.1282 34.6787C66.9081 34.4167 66.5183 34.3822 66.2569 34.6028L64.1474 36.3768C63.886 36.5974 63.8516 36.988 64.0717 37.25L67.8574 41.7699C68.0775 42.0319 68.4673 42.0663 68.7287 41.8457L70.8382 40.0718C71.0996 39.8512 71.134 39.4605 70.9139 39.1986L67.1282 34.6787Z" fill="#3796F6"/>
<path d="M57.8509 50.2812L52.3661 49.8193L52.3363 49.817L52.3042 49.8147C51.7952 48.9989 50.8964 48.4543 49.8668 48.4543C48.2824 48.4543 46.9938 49.7458 46.9938 51.3336C46.9938 52.9214 48.2824 54.2128 49.8668 54.2128C50.8941 54.2128 51.7952 53.6682 52.3042 52.8525L52.3363 52.8502L52.3661 52.8479L57.8509 52.386C58.3966 52.3401 58.8162 51.8828 58.8162 51.3336C58.8162 50.7844 58.3966 50.3271 57.8509 50.2812ZM49.8668 52.5974C49.1698 52.5974 48.6034 52.0298 48.6034 51.3313C48.6034 50.6327 49.1698 50.0652 49.8668 50.0652C49.9173 50.0652 49.97 50.0698 50.0205 50.0743C50.6464 50.1502 51.1302 50.6833 51.1302 51.329C51.1302 51.9747 50.6464 52.5078 50.0205 52.5836C49.97 52.5951 49.9196 52.5974 49.8668 52.5974Z" fill="#3796F6"/>
</svg>
