<svg width="100" height="100" viewBox="0 0 100 100" fill="none" xmlns="http://www.w3.org/2000/svg">
<rect width="100" height="100" fill="white"/>
<circle cx="50" cy="50" r="50" fill="#F7FAFC"/>
<path d="M33.2751 61.0536L38.4752 60.0948C38.4907 60.0897 38.5061 60.0846 38.5267 60.0794C38.7378 60.4383 38.9901 60.7716 39.2938 61.069L42.1822 63.8429C43.0677 64.694 44.2571 65.176 45.4876 65.1811L54.2608 65.2068L55.6354 65.2119L57.7361 65.217C59.0541 65.2221 60.1301 64.1608 60.1353 62.8431C60.1404 61.5356 59.0798 60.4742 57.7721 60.4589L59.4402 60.464C61.1187 60.4691 62.483 59.1155 62.4882 57.444C62.4933 56.0442 61.5409 54.8649 60.2434 54.5163L61.9116 54.5214C63.9504 54.5265 65.6031 52.8858 65.6082 50.8605C65.6134 49.2967 64.6351 47.9636 63.2553 47.4303H63.7239C65.8708 47.4354 67.6162 45.7075 67.6213 43.5694C67.6265 41.4313 65.8914 39.6983 63.7496 39.688L56.6394 39.6675C56.3408 37.4269 59.5844 36.8373 60.0735 31.5664C60.3721 28.3002 57.8648 26.5364 56.3665 26.0647C55.4501 25.7776 54.9764 26.4288 54.1423 28.3566C50.9142 35.7913 45.0551 39.3496 44.2107 39.8316C43.4848 40.0418 42.8103 40.4264 42.2543 40.9545L39.3505 43.713C39.0416 44.0053 38.7841 44.3385 38.5782 44.6923C38.5627 44.6872 38.5473 44.6821 38.5267 44.6769L33.3266 43.6925C32.3433 43.5079 31.4371 44.2514 31.432 45.2461L31.3908 59.4898C31.3856 60.4845 32.2918 61.2382 33.2751 61.0536Z" fill="#3796F6"/>
</svg>
